<svg width="200" height="200" viewBox="0 0 200 200" fill="none" xmlns="http://www.w3.org/2000/svg">
<rect width="200" height="200" rx="100" fill="white"/>
<path d="M92.4194 140.645C90.9874 142.077 89.8516 143.776 89.0767 145.647C88.3018 147.517 87.9031 149.522 87.9032 151.547V167.742H60.8065V151.547C60.8066 149.522 60.4079 147.517 59.633 145.647C58.8581 143.776 57.7222 142.077 56.2903 140.645V136.129H92.4194V140.645Z" fill="#276BDF"/>
<path d="M81.5174 163.226H87.9032V151.547C87.9031 149.522 88.3018 147.517 89.0767 145.647C89.8516 143.776 90.9874 142.077 92.4194 140.645V136.129H60.8064C62.2384 137.561 63.3742 139.26 64.1491 141.131C64.924 143.001 65.3228 145.006 65.3226 147.031C65.3226 151.326 67.0288 155.445 70.0659 158.482C73.1031 161.52 77.2223 163.226 81.5174 163.226V163.226Z" fill="#2A71EC"/>
<path d="M96.9355 127.097L94.6774 140.645H54.0323L51.7742 127.097H96.9355Z" fill="#98ADCE"/>
<path d="M72.2842 136.129H95.4294L96.9355 127.097H57.7581C59.0965 129.807 61.166 132.089 63.7329 133.685C66.2997 135.281 69.2616 136.127 72.2842 136.129V136.129Z" fill="#C2CDE6"/>
<path d="M92.4194 59.3548C90.9874 57.9233 89.8516 56.2237 89.0767 54.3532C88.3018 52.4826 87.9031 50.4776 87.9032 48.4529V32.2581H60.8065V48.4529C60.8066 50.4776 60.4079 52.4826 59.633 54.3532C58.8581 56.2237 57.7222 57.9233 56.2903 59.3548V59.3548V63.871H92.4194V59.3548Z" fill="#276BDF"/>
<path d="M96.9355 72.9032L94.6774 59.3549H54.0323L51.7742 72.9032H96.9355Z" fill="#98ADCE"/>
<path d="M101.452 124.839C101.452 126.635 100.738 128.358 99.4675 129.629C98.1971 130.899 96.474 131.613 94.6774 131.613H54.0323C52.2356 131.613 50.5126 130.899 49.2422 129.629C47.9718 128.358 47.2581 126.635 47.2581 124.839V75.1613C47.2581 73.3647 47.9718 71.6416 49.2422 70.3712C50.5126 69.1008 52.2356 68.3871 54.0323 68.3871H94.6774C96.474 68.3871 98.1971 69.1008 99.4675 70.3712C100.738 71.6416 101.452 73.3647 101.452 75.1613V124.839Z" fill="#276BDF"/>
<path d="M94.6774 70.6451H54.0323C51.5381 70.6451 49.5161 72.6671 49.5161 75.1613V124.839C49.5161 127.333 51.5381 129.355 54.0323 129.355H94.6774C97.1716 129.355 99.1935 127.333 99.1935 124.839V75.1613C99.1935 72.6671 97.1716 70.6451 94.6774 70.6451Z" fill="#7CBFE3"/>
<path d="M98.1097 72.2597C97.6902 71.7562 97.1655 71.3508 96.5725 71.0719C95.9796 70.7929 95.3327 70.6473 94.6774 70.6451H54.0323V120.323C54.0323 121.52 54.5081 122.669 55.355 123.516C56.2019 124.363 57.3506 124.839 58.5484 124.839H95.8674C90.3253 117.079 87.5357 107.69 87.942 98.1634C88.3482 88.6367 91.9271 79.5191 98.1097 72.2597V72.2597Z" fill="#9ADAF3"/>
<path d="M74.3548 77.4194H60.8065C58.3123 77.4194 56.2903 79.4413 56.2903 81.9355C56.2903 84.4297 58.3123 86.4516 60.8065 86.4516H74.3548C76.849 86.4516 78.871 84.4297 78.871 81.9355C78.871 79.4413 76.849 77.4194 74.3548 77.4194Z" fill="#F0CA6F"/>
<path d="M65.3226 95.4839H56.2903V104.516H65.3226V95.4839Z" fill="#D3FB52"/>
<path d="M65.3226 113.548H56.2903V122.581H65.3226V113.548Z" fill="#A33CEC"/>
<path d="M67.5806 63.871H95.4294L94.6774 59.3549H63.0645C63.0645 60.5526 63.5403 61.7013 64.3873 62.5482C65.2342 63.3952 66.3829 63.871 67.5806 63.871Z" fill="#C2CDE6"/>
<path d="M78.4916 54.8387H89.3077C88.3871 52.8354 87.9081 50.6576 87.9032 48.4529V32.2581H65.3226V41.6697C65.3226 45.1623 66.71 48.5119 69.1797 50.9816C71.6494 53.4513 74.999 54.8387 78.4916 54.8387Z" fill="#2A71EC"/>
<path d="M130.806 138.387C152.007 138.387 169.194 121.201 169.194 100C169.194 78.7994 152.007 61.6129 130.806 61.6129C109.606 61.6129 92.4194 78.7994 92.4194 100C92.4194 121.201 109.606 138.387 130.806 138.387Z" fill="#C1CCE4"/>
<path d="M130.806 61.6129C124.602 61.6101 118.491 63.1191 113.002 66.0094C105.718 72.0731 100.935 80.618 99.5763 89.9977C98.2174 99.3774 100.378 108.928 105.641 116.81C110.905 124.692 118.899 130.346 128.084 132.685C137.269 135.023 146.994 133.88 155.385 129.475C161.44 124.422 165.792 117.628 167.85 110.016C169.907 102.403 169.57 94.3418 166.885 86.9275C164.2 79.5132 159.296 73.1058 152.841 68.5765C146.386 64.0472 138.692 61.6158 130.806 61.6129V61.6129Z" fill="#E4EAF5"/>
<path d="M128.548 90.9677L129.594 88.879C130.637 86.7925 132.24 85.0376 134.224 83.8111C136.208 82.5847 138.495 81.9352 140.828 81.9355V81.9355C142.477 81.9355 144.11 82.2603 145.634 82.8915C147.158 83.5227 148.542 84.4478 149.709 85.614C150.875 86.7803 151.8 88.1648 152.431 89.6886C153.062 91.2124 153.387 92.8455 153.387 94.4948V94.4948C153.387 99.4878 151.515 104.299 148.142 107.98L128.548 129.355L108.955 107.98C105.582 104.299 103.71 99.4878 103.71 94.4948V94.4948C103.71 92.8455 104.035 91.2124 104.666 89.6886C105.297 88.1648 106.222 86.7803 107.388 85.614C108.554 84.4478 109.939 83.5227 111.463 82.8915C112.987 82.2603 114.62 81.9355 116.269 81.9355V81.9355C118.602 81.9352 120.888 82.5847 122.873 83.8111C124.857 85.0376 126.46 86.7925 127.503 88.879L128.548 90.9677Z" fill="#C1CCE4"/>
<path d="M130.806 88.7097L131.852 86.621C132.895 84.5344 134.498 82.7795 136.482 81.5531C138.467 80.3267 140.753 79.6772 143.086 79.6774V79.6774C146.417 79.6774 149.611 81.0006 151.967 83.356C154.322 85.7113 155.645 88.9058 155.645 92.2368V92.2368C155.645 97.2297 153.773 102.041 150.4 105.722L130.806 127.097L111.213 105.722C107.84 102.041 105.968 97.2297 105.968 92.2368V92.2368C105.968 88.9058 107.291 85.7113 109.646 83.356C112.002 81.0006 115.196 79.6774 118.527 79.6774V79.6774C120.86 79.6772 123.146 80.3267 125.131 81.5531C127.115 82.7795 128.718 84.5344 129.761 86.621L130.806 88.7097Z" fill="#D4474A"/>
<path d="M135.135 122.375L150.4 105.722C153.773 102.041 155.645 97.2297 155.645 92.2368V92.2368C155.645 89.4074 154.69 86.661 152.934 84.4425C151.178 82.2239 148.725 80.6632 145.971 80.0133C143.217 79.3634 140.325 79.6623 137.762 80.8615C135.2 82.0608 133.117 84.0902 131.852 86.621L130.806 88.7097L129.761 86.621C128.995 85.0837 127.921 83.7204 126.606 82.6155C125.291 81.5106 123.763 80.6877 122.117 80.198C120.47 79.7082 118.741 79.562 117.036 79.7685C115.331 79.9749 113.686 80.5296 112.205 81.3981C111.078 83.3149 110.484 85.4975 110.484 87.7206C110.484 92.7136 112.356 97.5251 115.729 101.206L135.135 122.375Z" fill="#EA5B5B"/>
<path d="M137.581 100C137.23 100 136.884 100.082 136.571 100.238C136.257 100.395 135.985 100.623 135.774 100.903L131.728 106.298L128.463 94.863C128.355 94.4848 128.15 94.1414 127.868 93.8668C127.586 93.5922 127.238 93.3959 126.857 93.2973C126.476 93.1988 126.077 93.2014 125.697 93.3049C125.318 93.4084 124.972 93.6092 124.694 93.8875L118.579 100H107.56C108.24 101.615 109.13 103.134 110.206 104.516H119.516C120.115 104.516 120.689 104.278 121.113 103.855L125.177 99.7901L128.639 111.907C128.754 112.311 128.981 112.674 129.292 112.957C129.603 113.239 129.987 113.429 130.4 113.506C130.534 113.533 130.67 113.547 130.806 113.548C131.157 113.548 131.503 113.467 131.816 113.31C132.13 113.153 132.403 112.926 132.613 112.645L138.71 104.516H151.407C152.487 103.134 153.381 101.616 154.065 100H137.581Z" fill="white"/>
</svg>
