<svg width="200" height="200" viewBox="0 0 200 200" fill="none" xmlns="http://www.w3.org/2000/svg">
<rect width="200" height="200" rx="100" fill="white"/>
<path d="M144.711 54.6086C145.249 55.0456 145.683 55.5977 145.981 56.2244C146.278 56.8511 146.431 57.5365 146.429 58.2301V113.944C146.429 115.176 145.939 116.357 145.069 117.227C144.198 118.098 143.017 118.587 141.786 118.587H100C98.7686 118.587 97.5877 118.098 96.717 117.227C95.8463 116.357 95.3571 115.176 95.3571 113.944V106.659V104.659H93.3571H58.2143C56.9829 104.659 55.802 104.169 54.9313 103.299C54.0606 102.428 53.5714 101.247 53.5714 100.016V39.6586C53.5714 38.4273 54.0606 37.2464 54.9313 36.3756C55.802 35.5049 56.9829 35.0158 58.2143 35.0158H118.571C119.635 35.0113 120.667 35.3719 121.496 36.0372L144.711 54.6086ZM144.711 54.6086L143.461 56.1704L143.455 56.1655C143.76 56.4137 144.005 56.7266 144.174 57.0816C144.343 57.4383 144.43 57.8284 144.429 58.2233V58.2301V113.944C144.429 114.645 144.15 115.318 143.654 115.813C143.159 116.309 142.487 116.587 141.786 116.587H100C99.299 116.587 98.6268 116.309 98.1312 115.813C97.6356 115.318 97.3571 114.645 97.3571 113.944V104.659V102.659H95.3571H58.2143C57.5133 102.659 56.8411 102.38 56.3455 101.885C55.8499 101.389 55.5714 100.717 55.5714 100.016V39.6586C55.5714 38.9577 55.8499 38.2855 56.3455 37.7899C56.8411 37.2942 57.5133 37.0158 58.2143 37.0158L118.571 37.0158L118.58 37.0158C119.185 37.0132 119.773 37.2185 120.245 37.5972L120.247 37.599L143.451 56.1618L144.711 54.6086Z" fill="white" stroke="#A9A9A9" stroke-width="4"/>
<path d="M102.643 109.302V111.302H104.643H160.357C161.058 111.302 161.73 111.58 162.226 112.076L163.268 111.034L162.226 112.076C162.722 112.571 163 113.243 163 113.944V150.298C163 157.047 156.185 163.016 146.429 163.016H53.5714C43.8152 163.016 37 157.047 37 150.298V106.807C37.1507 105.443 37.5628 104.121 38.2141 102.913C38.8808 101.677 39.7849 100.584 40.8747 99.6976C41.9645 98.8113 43.2185 98.1487 44.5649 97.7479C45.9112 97.3472 47.3235 97.2161 48.7206 97.3621L48.8243 97.373H48.9286H100C100.701 97.373 101.373 97.6514 101.869 98.1471C102.364 98.6427 102.643 99.3149 102.643 100.016V109.302Z" fill="#EAEAEA" stroke="#A9A9A9" stroke-width="4"/>
<path d="M120.236 37.5904L120.236 37.5905L120.247 37.599L143.459 56.1687C143.459 56.1688 143.459 56.1689 143.459 56.169C143.887 56.512 144.197 56.9796 144.347 57.5068C144.497 58.0341 144.48 58.5951 144.297 59.1119C144.114 59.6288 143.775 60.076 143.326 60.3915C142.878 60.7071 142.342 60.8753 141.794 60.873V60.873H141.786H118.571C117.87 60.873 117.198 60.5945 116.703 60.0989C116.207 59.6033 115.929 58.9311 115.929 58.2301V39.6587H115.929L115.929 39.6519C115.927 39.1518 116.067 38.6614 116.333 38.2378C116.599 37.8142 116.979 37.4748 117.431 37.2589C117.882 37.043 118.385 36.9596 118.882 37.0183C119.378 37.077 119.848 37.2754 120.236 37.5904Z" fill="#A9A9A9" stroke="#A9A9A9" stroke-width="4"/>
<path d="M109.286 132.516H104.643V127.873C104.643 126.642 104.154 125.461 103.283 124.59C102.412 123.719 101.231 123.23 100 123.23C98.7686 123.23 97.5877 123.719 96.717 124.59C95.8463 125.461 95.3571 126.642 95.3571 127.873V132.516H90.7143C89.4829 132.516 88.302 133.005 87.4313 133.876C86.5606 134.746 86.0714 135.927 86.0714 137.159C86.0714 138.39 86.5606 139.571 87.4313 140.442C88.302 141.312 89.4829 141.802 90.7143 141.802H95.3571V146.444C95.3571 147.676 95.8463 148.857 96.717 149.727C97.5877 150.598 98.7686 151.087 100 151.087C101.231 151.087 102.412 150.598 103.283 149.727C104.154 148.857 104.643 147.676 104.643 146.444V141.802H109.286C110.517 141.802 111.698 141.312 112.569 140.442C113.439 139.571 113.929 138.39 113.929 137.159C113.929 135.927 113.439 134.746 112.569 133.876C111.698 133.005 110.517 132.516 109.286 132.516Z" fill="#DD2853"/>
<path d="M76.7857 76.8015H123.214C124.446 76.8015 125.627 76.3124 126.497 75.4417C127.368 74.571 127.857 73.39 127.857 72.1587C127.857 70.9273 127.368 69.7464 126.497 68.8757C125.627 68.005 124.446 67.5158 123.214 67.5158H76.7857C75.5543 67.5158 74.3734 68.005 73.5027 68.8757C72.632 69.7464 72.1429 70.9273 72.1429 72.1587C72.1429 73.39 72.632 74.571 73.5027 75.4417C74.3734 76.3124 75.5543 76.8015 76.7857 76.8015Z" fill="#75C9C9"/>
<path d="M123.214 81.4445H76.7857C75.5543 81.4445 74.3734 81.9336 73.5027 82.8043C72.632 83.675 72.1429 84.856 72.1429 86.0873C72.1429 87.3187 72.632 88.4996 73.5027 89.3703C74.3734 90.241 75.5543 90.7302 76.7857 90.7302H123.214C124.446 90.7302 125.627 90.241 126.497 89.3703C127.368 88.4996 127.857 87.3187 127.857 86.0873C127.857 84.856 127.368 83.675 126.497 82.8043C125.627 81.9336 124.446 81.4445 123.214 81.4445Z" fill="#75C9C9"/>
</svg>
