<svg width="200" height="200" viewBox="0 0 200 200" fill="none" xmlns="http://www.w3.org/2000/svg">
<rect width="200" height="200" rx="100" fill="white"/>
<path d="M122.502 66.9542V60.625H77.4979V66.9542C77.4886 68.2065 77.0619 69.42 76.2853 70.4026C75.5088 71.3852 74.4267 72.0807 73.2104 72.3792C69.6104 73.3173 66.4227 75.4218 64.1456 78.3638C61.8686 81.3058 60.6305 84.9193 60.625 88.6396V155.417C60.625 158.511 61.8542 161.478 64.0421 163.666C66.23 165.854 69.1975 167.083 72.2917 167.083H127.708C130.803 167.083 133.77 165.854 135.958 163.666C138.146 161.478 139.375 158.511 139.375 155.417V88.6396C139.369 84.9193 138.131 81.3058 135.854 78.3638C133.577 75.4218 130.39 73.3173 126.79 72.3792C125.573 72.0807 124.491 71.3852 123.715 70.4026C122.938 69.42 122.511 68.2065 122.502 66.9542V66.9542Z" fill="#EAEAEA"/>
<path d="M126.79 72.3792C125.573 72.0807 124.491 71.3852 123.715 70.4026C122.938 69.42 122.511 68.2065 122.502 66.9542V60.625H110.835V74.2458C110.845 75.4982 111.271 76.7117 112.048 77.6942C112.825 78.6768 113.907 79.3724 115.123 79.6708C118.723 80.609 121.911 82.7135 124.188 85.6555C126.465 88.5974 127.703 92.211 127.708 95.9312V145.208C127.708 151.01 125.404 156.574 121.301 160.676C117.199 164.779 111.635 167.083 105.833 167.083H127.708C130.803 167.083 133.77 165.854 135.958 163.666C138.146 161.478 139.375 158.511 139.375 155.417V88.6396C139.37 84.9193 138.131 81.3058 135.854 78.3638C133.577 75.4218 130.39 73.3173 126.79 72.3792Z" fill="#BACECE"/>
<path d="M122.288 65.4208V59H77.7122V65.4208C77.703 66.6913 77.2803 67.9224 76.5112 68.9192C75.742 69.916 74.6703 70.6216 73.4656 70.9244C69.8998 71.8761 66.7425 74.0111 64.4871 76.9957C62.2317 79.9803 61.0055 83.6462 61 87.4203V155.164C61 158.303 62.2175 161.314 64.3845 163.533C66.5516 165.753 69.4908 167 72.5556 167H127.444C130.509 167 133.448 165.753 135.615 163.533C137.783 161.314 139 158.303 139 155.164V87.4203C138.995 83.6462 137.768 79.9803 135.513 76.9957C133.258 74.0111 130.1 71.8761 126.534 70.9244C125.33 70.6216 124.258 69.916 123.489 68.9192C122.72 67.9224 122.297 66.6913 122.288 65.4208V65.4208Z" stroke="#A9A9A9" stroke-width="4" stroke-linecap="round" stroke-linejoin="round"/>
<path d="M137 91H63V147H137V91Z" fill="#AAE1E9"/>
<path d="M137 91H128V147H137V91Z" fill="#75C9C9"/>
<path d="M126.25 32.9167H73.75C69.7229 32.9167 66.4583 36.1813 66.4583 40.2084V53.3334C66.4583 57.3604 69.7229 60.625 73.75 60.625H126.25C130.277 60.625 133.542 57.3604 133.542 53.3334V40.2084C133.542 36.1813 130.277 32.9167 126.25 32.9167Z" fill="#575072"/>
<path d="M126.25 32.9167H114.583C116.517 32.9167 118.372 33.6849 119.739 35.0524C121.107 36.4198 121.875 38.2745 121.875 40.2084V53.3334C121.875 55.2672 121.107 57.1219 119.739 58.4893C118.372 59.8568 116.517 60.625 114.583 60.625H126.25C128.184 60.625 130.039 59.8568 131.406 58.4893C132.773 57.1219 133.542 55.2672 133.542 53.3334V40.2084C133.542 38.2745 132.773 36.4198 131.406 35.0524C130.039 33.6849 128.184 32.9167 126.25 32.9167V32.9167Z" fill="#363354"/>
<path d="M105.833 124.792H114.583C115.357 124.792 116.099 124.484 116.646 123.937C117.193 123.39 117.5 122.649 117.5 121.875V116.042C117.5 115.268 117.193 114.526 116.646 113.979C116.099 113.432 115.357 113.125 114.583 113.125H105.833V104.375C105.833 103.601 105.526 102.86 104.979 102.313C104.432 101.766 103.69 101.458 102.917 101.458H97.0833C96.3098 101.458 95.5679 101.766 95.0209 102.313C94.474 102.86 94.1667 103.601 94.1667 104.375V113.125H85.4167C84.6431 113.125 83.9013 113.432 83.3543 113.979C82.8073 114.526 82.5 115.268 82.5 116.042V121.875C82.5 122.649 82.8073 123.39 83.3543 123.937C83.9013 124.484 84.6431 124.792 85.4167 124.792H94.1667V133.542C94.1667 134.315 94.474 135.057 95.0209 135.604C95.5679 136.151 96.3098 136.458 97.0833 136.458H102.917C103.69 136.458 104.432 136.151 104.979 135.604C105.526 135.057 105.833 134.315 105.833 133.542V124.792Z" fill="#575072"/>
</svg>
