<svg width="200" height="200" viewBox="0 0 200 200" fill="none" xmlns="http://www.w3.org/2000/svg">
<rect width="200" height="200" rx="100" fill="white"/>
<path d="M51 64.3333H46.3333V57.3333C46.3333 53.6203 47.8083 50.0593 50.4338 47.4338C53.0594 44.8083 56.6203 43.3333 60.3333 43.3333C64.0464 43.3333 67.6073 44.8083 70.2328 47.4338C72.8583 50.0593 74.3333 53.6203 74.3333 57.3333V59.6666H69.6667V57.3333C69.6667 54.858 68.6833 52.484 66.933 50.7336C65.1827 48.9833 62.8087 48 60.3333 48C57.858 48 55.484 48.9833 53.7337 50.7336C51.9833 52.484 51 54.858 51 57.3333V64.3333Z" fill="#A9A9A9"/>
<path d="M157.167 148.333H137.333C136.714 148.333 136.121 148.088 135.683 147.65C135.246 147.212 135 146.619 135 146C135 145.381 135.246 144.788 135.683 144.35C136.121 143.913 136.714 143.667 137.333 143.667H157.167C159.333 143.667 161.41 142.806 162.941 141.275C164.473 139.743 165.333 137.666 165.333 135.5C165.333 133.334 164.473 131.257 162.941 129.725C161.41 128.194 159.333 127.333 157.167 127.333H130.333C129.714 127.333 129.121 127.088 128.683 126.65C128.246 126.212 128 125.619 128 125C128 124.381 128.246 123.788 128.683 123.35C129.121 122.913 129.714 122.667 130.333 122.667H157.167C160.57 122.667 163.834 124.019 166.241 126.425C168.648 128.832 170 132.096 170 135.5C170 138.904 168.648 142.168 166.241 144.575C163.834 146.981 160.57 148.333 157.167 148.333Z" fill="#A9A9A9"/>
<path d="M131.5 57.3333H63.8333C61.9003 57.3333 60.3333 58.9003 60.3333 60.8333V154.167C60.3333 156.1 61.9003 157.667 63.8333 157.667H131.5C133.433 157.667 135 156.1 135 154.167V60.8333C135 58.9003 133.433 57.3333 131.5 57.3333Z" fill="#D18D28"/>
<path d="M110.5 52.6666H102.333V48C102.333 46.7623 101.842 45.5753 100.966 44.7001C100.091 43.825 98.9043 43.3333 97.6667 43.3333C96.429 43.3333 95.242 43.825 94.3668 44.7001C93.4917 45.5753 93 46.7623 93 48V52.6666H84.8333C83.9051 52.6666 83.0148 53.0354 82.3585 53.6918C81.7021 54.3482 81.3333 55.2384 81.3333 56.1666V66.6666H114V56.1666C114 55.2384 113.631 54.3482 112.975 53.6918C112.318 53.0354 111.428 52.6666 110.5 52.6666Z" fill="#C1E3F7"/>
<path d="M125.667 66.6667H69.6667V148.333H125.667V66.6667Z" fill="white"/>
<path d="M88.3333 106.333H79V115.667H88.3333V106.333Z" fill="#CBCBCB"/>
<path d="M88.3333 125H79V134.333H88.3333V125Z" fill="#CBCBCB"/>
<path d="M118.667 94.6667H95.3333V99.3334H118.667V94.6667Z" fill="#CBCBCB"/>
<path d="M102.333 108.667H95.3333V113.333H102.333V108.667Z" fill="#CBCBCB"/>
<path d="M118.667 108.667H107V113.333H118.667V108.667Z" fill="#CBCBCB"/>
<path d="M107 132H95.3333V136.667H107V132Z" fill="#CBCBCB"/>
<path d="M109.333 122.667H95.3333V127.333H109.333V122.667Z" fill="#CBCBCB"/>
<path d="M118.667 122.667H114V127.333H118.667V122.667Z" fill="#CBCBCB"/>
<path d="M83.6667 99.3333C83.3602 99.3333 83.0568 99.273 82.7737 99.1557C82.4906 99.0385 82.2334 98.8666 82.0167 98.6499L77.35 93.9833C76.9124 93.5457 76.6666 92.9522 76.6666 92.3333C76.6666 91.7145 76.9124 91.121 77.35 90.6834C77.7876 90.2458 78.3811 89.9999 79 89.9999C79.6189 89.9999 80.2124 90.2458 80.65 90.6834L83.4141 93.4475L88.8 86.2667C89.1713 85.7716 89.7241 85.4443 90.3367 85.3568C90.9493 85.2693 91.5716 85.4287 92.0667 85.8C92.5617 86.1713 92.889 86.7241 92.9765 87.3367C93.0641 87.9493 92.9046 88.5716 92.5333 89.0667L85.5333 98.4C85.3327 98.6674 85.077 98.8886 84.7835 99.0485C84.49 99.2085 84.1655 99.3035 83.832 99.3272C83.7766 99.3313 83.7215 99.3333 83.6667 99.3333Z" fill="#F55648"/>
<path d="M102.333 76H100V73.6667H95.3333V76H93V80.6667H95.3333V83H100V80.6667H102.333V76Z" fill="#029532"/>
<path d="M44 122.667C41.5255 122.664 39.1531 121.68 37.4034 119.93C35.6537 118.18 34.6694 115.808 34.6667 113.333V99.3333C34.6667 98.7145 34.9125 98.121 35.3501 97.6834C35.7877 97.2458 36.3812 97 37 97C37.6188 97 38.2123 97.2458 38.6499 97.6834C39.0875 98.121 39.3333 98.7145 39.3333 99.3333V113.333C39.3348 114.571 39.8269 115.757 40.7018 116.632C41.5766 117.506 42.7628 117.999 44 118C44.6188 118 45.2123 118.246 45.6499 118.683C46.0875 119.121 46.3333 119.714 46.3333 120.333C46.3333 120.952 46.0875 121.546 45.6499 121.983C45.2123 122.421 44.6188 122.667 44 122.667Z" fill="#A9A9A9"/>
<path d="M53.3333 122.667C52.7145 122.667 52.121 122.421 51.6834 121.983C51.2458 121.546 51 120.952 51 120.333C51 119.714 51.2458 119.121 51.6834 118.683C52.121 118.246 52.7145 118 53.3333 118C54.5706 117.999 55.7567 117.506 56.6315 116.632C57.5064 115.757 57.9985 114.571 58 113.333V99.3333C58 98.7145 58.2458 98.121 58.6834 97.6834C59.121 97.2458 59.7145 97 60.3333 97C60.9522 97 61.5457 97.2458 61.9832 97.6834C62.4208 98.121 62.6667 98.7145 62.6667 99.3333V113.333C62.6639 115.808 61.6797 118.18 59.9299 119.93C58.1802 121.68 55.8078 122.664 53.3333 122.667Z" fill="#A9A9A9"/>
<path d="M53.3333 74.3468V64.3333H44V74.3468C40.6301 75.3535 37.6748 77.4203 35.573 80.2403C33.4712 83.0602 32.3351 86.4829 32.3333 90V99.3333H41.6667V90C41.6667 88.1435 42.4042 86.363 43.7169 85.0502C45.0297 83.7375 46.8102 83 48.6667 83C50.5232 83 52.3037 83.7375 53.6164 85.0502C54.9292 86.363 55.6667 88.1435 55.6667 90V99.3333H65V90C64.9994 86.4826 63.8637 83.0594 61.7618 80.2392C59.6598 77.419 56.7038 75.3525 53.3333 74.3468V74.3468Z" fill="#007AF6"/>
<path d="M130.333 157.667C136.777 157.667 142 152.443 142 146C142 139.557 136.777 134.333 130.333 134.333C123.89 134.333 118.667 139.557 118.667 146C118.667 152.443 123.89 157.667 130.333 157.667Z" fill="#007AF6"/>
<path d="M130.333 150.667C132.911 150.667 135 148.577 135 146C135 143.423 132.911 141.333 130.333 141.333C127.756 141.333 125.667 143.423 125.667 146C125.667 148.577 127.756 150.667 130.333 150.667Z" fill="#8ED2FF"/>
</svg>
