<svg width="20" height="20" viewBox="0 0 20 20" fill="none" xmlns="http://www.w3.org/2000/svg">
<g clip-path="url(#clip0_23_375)">
<path d="M6.31667 3.39999L5.125 2.20833C3.125 3.73333 1.80833 6.08333 1.69167 8.74999H3.35833C3.48333 6.54166 4.61667 4.60833 6.31667 3.39999ZM16.6417 8.74999H18.3083C18.1833 6.08333 16.8667 3.73333 14.875 2.20833L13.6917 3.39999C15.375 4.60833 16.5167 6.54166 16.6417 8.74999ZM15 9.16666C15 6.60833 13.6333 4.46666 11.25 3.89999V3.33333C11.25 2.64166 10.6917 2.08333 10 2.08333C9.30833 2.08333 8.75 2.64166 8.75 3.33333V3.89999C6.35833 4.46666 5 6.59999 5 9.16666V13.3333L3.33333 15V15.8333H16.6667V15L15 13.3333V9.16666ZM10 18.3333C10.1167 18.3333 10.225 18.325 10.3333 18.3C10.875 18.1833 11.3167 17.8167 11.5333 17.3167C11.6167 17.1167 11.6583 16.9 11.6583 16.6667H8.325C8.33333 17.5833 9.075 18.3333 10 18.3333Z" fill="white"/>
</g>
<defs>
<clipPath id="clip0_23_375">
<rect width="20" height="20" fill="white"/>
</clipPath>
</defs>
</svg>
