<svg width="90" height="90" viewBox="0 0 90 90" fill="none" xmlns="http://www.w3.org/2000/svg">
<mask id="mask0_621_688" style="mask-type:alpha" maskUnits="userSpaceOnUse" x="0" y="0" width="90" height="90">
<rect width="90" height="90" fill="#D9D9D9"/>
</mask>
<g mask="url(#mask0_621_688)">
<path d="M0 36C0 29.4 1.332 23.157 3.996 17.271C6.657 11.382 10.4625 6.3 15.4125 2.025L21.825 8.325C17.775 11.85 14.625 15.993 12.375 20.754C10.125 25.518 9 30.6 9 36H0ZM81 36C81 30.6 79.875 25.518 77.625 20.754C75.375 15.993 72.225 11.85 68.175 8.325L74.5875 2.025C79.5375 6.3 83.3445 11.382 86.0085 17.271C88.6695 23.157 90 29.4 90 36H81ZM9 76.5V67.5H18V36C18 29.775 19.875 24.243 23.625 19.404C27.375 14.568 32.25 11.4 38.25 9.9V6.75C38.25 4.875 38.907 3.282 40.221 1.971C41.532 0.657 43.125 0 45 0C46.875 0 48.468 0.657 49.779 1.971C51.093 3.282 51.75 4.875 51.75 6.75V9.9C57.75 11.4 62.625 14.568 66.375 19.404C70.125 24.243 72 29.775 72 36V67.5H81V76.5H9ZM45 90C42.525 90 40.407 89.1195 38.646 87.3585C36.882 85.5945 36 83.475 36 81H54C54 83.475 53.1195 85.5945 51.3585 87.3585C49.5945 89.1195 47.475 90 45 90ZM27 67.5H63V36C63 31.05 61.2375 26.8125 57.7125 23.2875C54.1875 19.7625 49.95 18 45 18C40.05 18 35.8125 19.7625 32.2875 23.2875C28.7625 26.8125 27 31.05 27 36V67.5Z" fill="white"/>
</g>
</svg>
