<svg width="90" height="90" viewBox="0 0 90 90" fill="none" xmlns="http://www.w3.org/2000/svg">
<mask id="mask0_621_676" style="mask-type:alpha" maskUnits="userSpaceOnUse" x="0" y="0" width="90" height="90">
<rect width="90" height="90" fill="#D9D9D9"/>
</mask>
<g mask="url(#mask0_621_676)">
<path d="M9.375 90C6.79688 90 4.59062 89.1195 2.75625 87.3585C0.918749 85.5945 0 83.475 0 81V9C0 6.525 0.918749 4.4055 2.75625 2.6415C4.59062 0.880499 6.79688 0 9.375 0H46.875L75 27V45H65.625V31.5H42.1875V9H9.375V81H37.5V90H9.375ZM67.0312 56.3625L72.0703 61.2L53.9062 78.525V83.25H58.8281L76.9922 65.925L81.9141 70.65L61.7578 90H46.875V75.7125L67.0312 56.3625ZM81.9141 70.65L67.0312 56.3625L73.8281 49.8375C74.6875 49.0125 75.7812 48.6 77.1094 48.6C78.4375 48.6 79.5312 49.0125 80.3906 49.8375L88.7109 57.825C89.5703 58.65 90 59.7 90 60.975C90 62.25 89.5703 63.3 88.7109 64.125L81.9141 70.65Z" fill="white"/>
</g>
</svg>
