<svg width="90" height="90" viewBox="0 0 90 90" fill="none" xmlns="http://www.w3.org/2000/svg">
<mask id="mask0_621_682" style="mask-type:alpha" maskUnits="userSpaceOnUse" x="0" y="0" width="90" height="90">
<rect width="90" height="90" fill="#D9D9D9"/>
</mask>
<g mask="url(#mask0_621_682)">
<path d="M42.5854 70.2439C35.561 69.8781 29.6341 67.1707 24.8049 62.122C19.9756 57.0732 17.561 51 17.561 43.9024C17.561 36.5854 20.122 30.3659 25.2439 25.2439C30.3659 20.122 36.5854 17.561 43.9024 17.561C51 17.561 57.0732 19.9756 62.122 24.8049C67.1707 29.6341 69.8781 35.561 70.2439 42.5854L61.0244 39.8415C60.0732 35.8902 58.0244 32.6532 54.8781 30.1302C51.7317 27.6044 48.0732 26.3415 43.9024 26.3415C39.0732 26.3415 34.939 28.061 31.5 31.5C28.061 34.939 26.3415 39.0732 26.3415 43.9024C26.3415 48.0732 27.6044 51.7317 30.1302 54.8781C32.6532 58.0244 35.8902 60.0732 39.8415 61.0244L42.5854 70.2439ZM47.8537 87.5854C47.1951 87.7317 46.5366 87.8049 45.878 87.8049H43.9024C37.8293 87.8049 32.122 86.6517 26.7805 84.3454C21.439 82.042 16.7927 78.9146 12.8415 74.9634C8.89025 71.0122 5.76293 66.3659 3.45951 61.0244C1.15317 55.6829 0 49.9756 0 43.9024C0 37.8293 1.15317 32.122 3.45951 26.7805C5.76293 21.439 8.89025 16.7927 12.8415 12.8415C16.7927 8.89025 21.439 5.76146 26.7805 3.45512C32.122 1.15171 37.8293 0 43.9024 0C49.9756 0 55.6829 1.15171 61.0244 3.45512C66.3659 5.76146 71.0122 8.89025 74.9634 12.8415C78.9146 16.7927 82.042 21.439 84.3454 26.7805C86.6517 32.122 87.8049 37.8293 87.8049 43.9024V45.878C87.8049 46.5366 87.7317 47.1951 87.5854 47.8537L79.0244 45.2195V43.9024C79.0244 34.0976 75.6219 25.7927 68.8171 18.9878C62.0122 12.1829 53.7073 8.78049 43.9024 8.78049C34.0976 8.78049 25.7927 12.1829 18.9878 18.9878C12.1829 25.7927 8.78049 34.0976 8.78049 43.9024C8.78049 53.7073 12.1829 62.0122 18.9878 68.8171C25.7927 75.6219 34.0976 79.0244 43.9024 79.0244H45.2195L47.8537 87.5854ZM81.3293 90L62.561 71.2317L57.0732 87.8049L43.9024 43.9024L87.8049 57.0732L71.2317 62.561L90 81.3293L81.3293 90Z" fill="white"/>
</g>
</svg>
