<svg width="168" height="168" viewBox="0 0 168 168" fill="none" xmlns="http://www.w3.org/2000/svg">
<circle cx="84" cy="84" r="84" fill="#CDD6F1"/>
<mask id="mask0_658_627" style="mask-type:alpha" maskUnits="userSpaceOnUse" x="39" y="39" width="90" height="90">
<rect x="39" y="39" width="90" height="90" fill="#D9D9D9"/>
</mask>
<g mask="url(#mask0_658_627)">
<path d="M39 75C39 68.4 40.332 62.157 42.996 56.271C45.657 50.382 49.4625 45.3 54.4125 41.025L60.825 47.325C56.775 50.85 53.625 54.993 51.375 59.754C49.125 64.518 48 69.6 48 75H39ZM120 75C120 69.6 118.875 64.518 116.625 59.754C114.375 54.993 111.225 50.85 107.175 47.325L113.588 41.025C118.538 45.3 122.345 50.382 125.009 56.271C127.67 62.157 129 68.4 129 75H120ZM48 115.5V106.5H57V75C57 68.775 58.875 63.243 62.625 58.404C66.375 53.568 71.25 50.4 77.25 48.9V45.75C77.25 43.875 77.907 42.282 79.221 40.971C80.532 39.657 82.125 39 84 39C85.875 39 87.468 39.657 88.779 40.971C90.093 42.282 90.75 43.875 90.75 45.75V48.9C96.75 50.4 101.625 53.568 105.375 58.404C109.125 63.243 111 68.775 111 75V106.5H120V115.5H48ZM84 129C81.525 129 79.407 128.12 77.646 126.359C75.882 124.595 75 122.475 75 120H93C93 122.475 92.1195 124.595 90.3585 126.359C88.5945 128.12 86.475 129 84 129ZM66 106.5H102V75C102 70.05 100.237 65.8125 96.7125 62.2875C93.1875 58.7625 88.95 57 84 57C79.05 57 74.8125 58.7625 71.2875 62.2875C67.7625 65.8125 66 70.05 66 75V106.5Z" fill="white"/>
</g>
</svg>
