<svg width="90" height="90" viewBox="0 0 90 90" fill="none" xmlns="http://www.w3.org/2000/svg">
<path d="M26.4545 90C24.2045 90 22.2791 89.1995 20.6782 87.5986C19.0745 85.995 18.2727 84.0682 18.2727 81.8182V65.4545H26.4545V69.5455H67.3636V20.4545H26.4545V24.5455H18.2727V8.18182C18.2727 5.93182 19.0745 4.005 20.6782 2.40136C22.2791 0.800454 24.2045 0 26.4545 0H67.3636C69.6136 0 71.5405 0.800454 73.1441 2.40136C74.745 4.005 75.5455 5.93182 75.5455 8.18182V81.8182C75.5455 84.0682 74.745 85.995 73.1441 87.5986C71.5405 89.1995 69.6136 90 67.3636 90H26.4545ZM26.4545 77.7273V81.8182H67.3636V77.7273H26.4545ZM5.72727 65.4545L0 59.7273L22.9091 36.8182H8.18182V28.6364H36.8182V57.2727H28.6364V42.5455L5.72727 65.4545ZM26.4545 12.2727H67.3636V8.18182H26.4545V12.2727Z" fill="white"/>
</svg>
