<svg width="60" height="60" viewBox="0 0 60 60" fill="none" xmlns="http://www.w3.org/2000/svg">
<circle cx="30" cy="30" r="30" fill="#F39100"/>
<mask id="mask0_621_696" style="mask-type:alpha" maskUnits="userSpaceOnUse" x="6" y="5" width="50" height="50">
<rect x="6" y="5" width="50" height="50" fill="#D9D9D9"/>
</mask>
<g mask="url(#mask0_621_696)">
<path d="M31.0004 48.75C29.8546 48.75 28.874 48.3424 28.0587 47.5271C27.2421 46.7104 26.8337 45.7292 26.8337 44.5833C26.8337 43.4375 27.2421 42.4562 28.0587 41.6396C28.874 40.8243 29.8546 40.4167 31.0004 40.4167C32.1462 40.4167 33.1275 40.8243 33.9442 41.6396C34.7594 42.4562 35.1671 43.4375 35.1671 44.5833C35.1671 45.7292 34.7594 46.7104 33.9442 47.5271C33.1275 48.3424 32.1462 48.75 31.0004 48.75ZM26.8337 36.25V11.25H35.1671V36.25H26.8337Z" fill="white"/>
</g>
</svg>
