<svg width="58" height="70" viewBox="0 0 58 70" fill="none" xmlns="http://www.w3.org/2000/svg">
<path d="M54.0505 30.3839C50.7868 24.662 39.9218 27.5941 36.3897 31.6049C30.7868 37.9712 37.4402 44.8721 37.8861 51.5162C38.0355 53.748 37.3002 55.7487 35.9998 57.5323C34.9073 59.0357 33.6489 60.4878 33.0513 62.2784C31.2934 67.5521 36.3453 71.1403 41.2082 69.6672C44.145 68.7777 45.8562 66.4012 46.6967 63.5577C47.8453 59.6777 55.136 39.8995 54.8326 33.2928C54.7812 32.1512 54.5034 31.1847 54.0481 30.3839H54.0505Z" fill="#9CD8F2"/>
<path d="M36.8052 22.743C36.5834 22.5586 36.3313 22.4068 36.0465 22.2948C34.6364 21.7392 33.161 22.5539 32.4233 23.7772C31.2817 25.6682 30.8568 28.8969 32.6007 30.5917C34.417 32.359 37.041 30.8532 37.8488 28.8618C38.2667 27.8276 38.325 26.6744 38.1733 25.5678C38.0285 24.5126 37.627 23.4177 36.8076 22.743H36.8052Z" fill="#9CD8F2"/>
<path d="M43.4026 23.5274C43.3583 23.1095 43.2346 22.7033 43.0034 22.3531C42.6509 21.8208 42.0253 21.4496 41.3879 21.5057C40.7226 21.564 40.1716 22.059 39.7818 22.6006C38.9647 23.7398 38.3344 25.6892 39.1631 26.9825C39.6464 27.7365 40.7343 27.977 41.5163 27.5755C42.714 26.9591 43.2999 25.4557 43.4073 24.1857C43.426 23.9663 43.426 23.7445 43.4026 23.525V23.5274Z" fill="#9CD8F2"/>
<path d="M48.6483 22.1944C48.1768 21.4893 47.3503 21.1018 46.4585 21.5664C45.3496 22.143 44.4952 23.6885 44.773 24.9351C44.8781 25.4044 45.1045 25.8549 45.4687 26.1654C47.1379 27.5895 49.0265 25.1219 49.0522 23.5671C49.0592 23.0721 48.9098 22.5842 48.6483 22.1944Z" fill="#9CD8F2"/>
<path d="M53.3711 23.5741C52.7081 22.3018 51.0809 22.5329 50.3222 23.5297C49.846 24.1554 49.5448 24.9515 49.6662 25.7289C49.8133 26.6557 50.6607 27.4728 51.6365 27.286C53.196 26.9872 54.0971 24.9678 53.3711 23.5741Z" fill="#9CD8F2"/>
<path d="M57.3048 25.8853C56.8799 25.2573 56.0395 24.9375 55.087 25.2479C54.1182 25.5654 53.5976 26.8027 53.4738 27.7389C53.4178 28.1708 53.4365 28.6284 53.6442 29.0136C54.5547 30.7154 56.8799 28.9038 57.3888 27.8019C57.7227 27.0759 57.6456 26.3825 57.3071 25.8853H57.3048Z" fill="#9CD8F2"/>
<path d="M55.719 28.2442C55.719 28.2442 55.7223 28.2442 55.724 28.2442C55.729 28.2442 55.7323 28.2408 55.7357 28.2408C55.739 28.2408 55.7323 28.2408 55.7173 28.2458L55.719 28.2442Z" fill="#9CD8F2"/>
<path d="M2.51081 11.1146C1.54198 17.6583 6.80169 38.0692 7.55575 42.0449C8.1067 44.9584 9.56812 47.4961 12.4022 48.675C17.0923 50.629 22.4781 47.5684 21.2618 42.1453C20.8486 40.3034 19.7444 38.7322 18.8059 37.126C17.6923 35.2187 17.1624 33.155 17.5359 30.9489C18.6495 24.3841 25.9636 18.1883 21.0307 11.2897C17.9234 6.94513 7.40867 2.93439 3.5847 8.29916C3.05009 9.05088 2.6789 9.98237 2.51081 11.1146Z" fill="#9CD8F2"/>
<path d="M19.8704 5.10792C19.609 6.19348 19.5483 7.34674 19.8611 8.41596C20.4634 10.4797 22.924 12.2423 24.9084 10.6665C26.8133 9.15367 26.7153 5.89933 25.7721 3.9033C25.1605 2.60997 23.7761 1.6528 22.3147 2.06368C22.0182 2.14773 21.7521 2.27379 21.5139 2.43254C20.6315 3.02318 20.1226 4.07139 19.8704 5.10559V5.10792Z" fill="#9CD8F2"/>
<path d="M14.7975 3.20516C14.7741 4.47982 15.206 6.03229 16.3359 6.76767C17.0713 7.24625 18.1779 7.11785 18.7358 6.41515C19.6907 5.21053 19.2611 3.2075 18.5631 1.9912C18.2292 1.41224 17.732 0.863622 17.076 0.739892C16.4503 0.62083 15.7897 0.926655 15.3834 1.41924C15.1173 1.74374 14.9539 2.13595 14.8675 2.54682C14.8232 2.7616 14.7998 2.98338 14.7951 3.20283L14.7975 3.20516Z" fill="#9CD8F2"/>
<path d="M9.24596 2.01927C9.11523 3.5694 10.7447 6.21443 12.5493 4.96545C12.9439 4.69231 13.2147 4.26509 13.3664 3.80986C13.768 2.59823 13.0746 0.971062 12.0287 0.287042C11.186 -0.263909 10.3245 0.0372467 9.78524 0.690917C9.48642 1.05277 9.28565 1.52435 9.24363 2.01693L9.24596 2.01927Z" fill="#9CD8F2"/>
<path d="M6.29977 5.45575C7.25226 5.74057 8.17674 5.01219 8.41719 4.10406C8.61796 3.343 8.39852 2.52124 7.98764 1.85123C7.33163 0.782006 5.73714 0.389804 4.94807 1.58976C4.08662 2.90177 4.77765 5.00285 6.29977 5.45575Z" fill="#9CD8F2"/>
<path d="M0.52645 5.39266C0.920987 6.54126 3.05009 8.57698 4.12864 6.97548C4.37143 6.61363 4.43914 6.16073 4.42513 5.72417C4.39711 4.78102 4.00258 3.49702 3.0711 3.08147C2.15596 2.67526 1.28751 2.90871 0.799591 3.49235C0.414392 3.95459 0.267316 4.63861 0.52645 5.39266Z" fill="#9CD8F2"/>
<path d="M2.13493 5.99902C2.13493 5.99902 2.1316 5.99902 2.12993 5.99736C2.1266 5.99569 2.12159 5.99402 2.11826 5.99235C2.11492 5.99069 2.12159 5.99235 2.1366 5.99902H2.13493Z" fill="#9CD8F2"/>
</svg>
