<svg width="330" height="168" viewBox="0 0 330 168" fill="none" xmlns="http://www.w3.org/2000/svg">
<rect width="330" height="168" rx="4" fill="white"/>
<g clip-path="url(#clip0_13_253)">
<path d="M166.567 159.601C205.957 159.601 237.889 127.678 237.889 88.3003C237.889 48.9222 205.957 17 166.567 17C127.177 17 95.2448 48.9222 95.2448 88.3003C95.2448 127.678 127.177 159.601 166.567 159.601Z" fill="#DCF1E6"/>
<path d="M115.879 142.161C114.496 142.161 112.5 141.919 111.347 140.692C110.511 139.802 110.248 138.575 110.579 137.045C111.145 134.409 114.807 132.542 118.684 130.56C123.269 128.221 128.468 125.572 128.468 121.554C128.468 121.21 128.745 120.927 129.089 120.927C129.432 120.927 129.709 121.203 129.716 121.554C129.716 126.34 124.159 129.171 119.25 131.672C115.643 133.513 112.237 135.245 111.799 137.301C111.563 138.42 111.711 139.249 112.258 139.829C113.424 141.069 116.223 140.962 117.207 140.82C117.544 140.773 117.868 141.002 117.915 141.346C117.962 141.69 117.733 142.006 117.389 142.054C117.322 142.067 116.715 142.155 115.879 142.155V142.161Z" fill="#434343"/>
<path d="M127.497 102.436C127.861 102.74 128.191 103.03 128.468 103.279C130.943 105.551 131.34 105.888 130.14 103.144C128.468 99.5983 131.813 96.9895 132.75 100.535C133.687 104.081 134.422 104.014 135.764 106.016C137.099 108.025 136.432 111.233 136.432 111.233L160.653 122.963C166.762 128.545 159.48 134.8 159.48 134.8C159.48 134.8 134.49 120.927 132.554 118.925C126.937 122.606 120.916 114.981 120.916 114.981C120.916 114.981 120.801 114.981 120.605 114.968C122.743 110.714 125.265 106.643 127.51 102.43L127.497 102.436Z" fill="#F2D7BD"/>
<g style="mix-blend-mode:multiply">
<path d="M127.497 102.436C127.861 102.74 128.192 103.03 128.468 103.279C130.943 105.551 131.341 105.888 130.14 103.144C129.25 101.25 129.783 99.6253 130.619 99.0591C130.518 99.2546 130.437 99.4568 130.39 99.6658C129.898 101.749 131.9 104.27 132.426 106.164C133.674 110.64 133.404 115.73 130.848 119.7C125.778 121.136 120.909 114.975 120.909 114.975C120.909 114.975 120.794 114.975 120.599 114.961C122.737 110.708 125.258 106.636 127.504 102.423L127.497 102.436Z" fill="#F2D7BD"/>
</g>
<path d="M130.781 104.749C130.835 105.18 130.936 105.605 131.044 106.016L131.111 105.8C130.788 105.989 130.498 106.198 130.215 106.427C129.931 106.656 129.668 106.912 129.426 107.196C129.19 107.479 128.967 107.775 128.805 108.112C128.724 108.281 128.65 108.456 128.603 108.638C128.549 108.82 128.536 109.009 128.536 109.184C128.617 109.016 128.697 108.861 128.792 108.712C128.832 108.638 128.886 108.564 128.94 108.497C128.987 108.422 129.035 108.355 129.095 108.288C129.304 108.018 129.54 107.762 129.783 107.519C130.269 107.027 130.801 106.555 131.327 106.103L131.449 106.002L131.395 105.888C131.213 105.497 131.017 105.119 130.781 104.749Z" fill="#C19268"/>
<path d="M128.751 111.591C128.751 111.591 129.075 111.685 129.513 111.867C129.736 111.955 129.979 112.076 130.242 112.211C130.491 112.359 130.768 112.501 131.004 112.696C131.132 112.777 131.246 112.885 131.361 112.979C131.476 113.074 131.577 113.188 131.685 113.283C131.793 113.384 131.873 113.492 131.968 113.593C132.062 113.694 132.136 113.795 132.211 113.889C132.278 113.984 132.359 114.065 132.413 114.146C132.467 114.226 132.514 114.301 132.554 114.361C132.642 114.476 132.689 114.543 132.689 114.543C132.689 114.543 132.676 114.462 132.642 114.321C132.622 114.247 132.602 114.159 132.575 114.065C132.554 113.964 132.501 113.862 132.453 113.741C132.399 113.627 132.352 113.498 132.271 113.377C132.19 113.256 132.123 113.114 132.015 112.993C131.907 112.872 131.819 112.73 131.685 112.622C131.563 112.507 131.435 112.386 131.294 112.292C131.159 112.184 131.01 112.096 130.862 112.015C130.72 111.921 130.559 111.874 130.417 111.806C130.12 111.692 129.83 111.618 129.581 111.591C129.082 111.517 128.745 111.591 128.745 111.591H128.751Z" fill="#C19268"/>
<path d="M125.515 102.288C126.452 101.789 127.544 101.567 128.549 101.937C128.826 102.039 129.25 102.288 129.668 102.463C130.842 104.573 134.625 113.424 130.086 120.26L127.787 120.287C127.787 120.287 126.58 119.538 125.4 117.792C124.503 115.966 123.829 113.997 123.681 111.968C123.445 108.813 123.89 105.146 125.508 102.295L125.515 102.288Z" fill="#3F3E3C"/>
<g style="mix-blend-mode:multiply" opacity="0.4">
<path d="M125.515 102.288C126.189 101.924 126.951 101.715 127.699 101.762C126.681 103.906 126.627 106.279 126.472 108.753C126.31 111.247 126.189 114.233 127.679 116.384C128.981 118.258 130.538 116.761 131.206 115.251C131.725 114.071 132.069 112.845 132.238 111.604C132.393 114.435 131.921 117.509 130.093 120.26L127.794 120.287C127.794 120.287 126.587 119.538 125.407 117.792C124.51 115.966 123.836 113.997 123.687 111.968C123.451 108.813 123.896 105.146 125.515 102.295V102.288Z" fill="#3F3E3C"/>
</g>
<path d="M119.399 109.467C119.877 110.081 120.457 109.737 120.794 109.103C121.779 107.27 122.514 104.823 124.24 103.542C125.036 102.949 126.31 102.868 127.295 102.868C127.74 102.868 128.401 102.915 128.603 102.382C128.873 101.668 128.117 101.034 127.598 100.751C120.808 97.0435 118.043 107.229 119.358 109.279C119.318 109.305 119.318 109.38 119.392 109.481L119.399 109.467Z" fill="#F2D7BD"/>
<g style="mix-blend-mode:multiply">
<path d="M119.109 108.55C119.48 106.265 120.444 104.027 122.629 102.976C124.463 102.093 126.189 102.605 128.104 102.477C128.306 102.463 128.475 102.409 128.61 102.335C128.61 102.349 128.61 102.362 128.603 102.376C128.401 102.915 127.74 102.861 127.295 102.861C126.31 102.861 125.036 102.942 124.24 103.535C122.514 104.816 121.779 107.263 120.794 109.097C120.457 109.737 119.877 110.081 119.399 109.461C119.318 109.366 119.324 109.285 119.365 109.258C119.25 109.076 119.169 108.834 119.115 108.544L119.109 108.55Z" fill="#F2D7BD"/>
</g>
<path d="M119.797 111.719C119.797 111.719 119.79 111.732 119.783 111.739C119.722 111.827 119.958 112.117 120.046 112.029C120.066 112.015 120.08 111.995 120.093 111.982C120.113 111.961 120.113 111.934 120.113 111.908C120.134 111.874 120.154 111.833 120.174 111.793C120.174 111.793 120.194 111.786 120.194 111.779C120.255 111.678 120.309 111.577 120.363 111.476C120.376 111.456 120.356 111.422 120.329 111.395C120.451 111.045 120.538 110.681 120.687 110.35C121.165 109.238 121.718 108.2 122.474 107.236C123.202 106.312 124.045 105.544 125.299 105.524C126.142 105.51 126.884 105.301 127.666 104.984C129.446 104.263 127.666 103.097 126.634 102.881C123.492 102.227 120.734 104.061 119.709 106.993C119.412 107.843 118.38 111.206 119.79 111.719H119.797Z" fill="#F2D7BD"/>
<g style="mix-blend-mode:multiply">
<path d="M119.412 111.442C119.297 108.429 120.633 105.611 123.944 105.032C125.4 104.775 127.302 105.22 128.421 104.182C128.448 104.465 128.252 104.742 127.672 104.984C126.897 105.301 126.149 105.51 125.306 105.524C124.051 105.537 123.202 106.306 122.48 107.236C121.732 108.2 121.179 109.238 120.693 110.35C120.552 110.681 120.457 111.045 120.336 111.395C120.363 111.422 120.383 111.456 120.37 111.476C120.309 111.577 120.255 111.678 120.201 111.779C120.201 111.786 120.194 111.793 120.181 111.793C120.161 111.833 120.14 111.874 120.12 111.908C120.12 111.941 120.12 111.968 120.1 111.982C120.086 111.995 120.066 112.015 120.053 112.029C119.965 112.117 119.729 111.827 119.79 111.739C119.79 111.739 119.796 111.726 119.803 111.719C119.641 111.665 119.52 111.564 119.419 111.442H119.412Z" fill="#F2D7BD"/>
</g>
<path d="M121.482 115.548C121.482 115.548 121.503 115.561 121.516 115.561C121.604 115.662 121.799 115.851 121.806 115.676C121.826 114.355 122.238 112.898 122.858 111.732C123.235 111.031 123.606 110.135 124.18 109.568C124.254 109.494 124.584 109.279 124.874 109.083C124.901 109.103 124.935 109.117 124.955 109.11C126.014 108.84 126.796 108.962 127.861 109.083C128.347 109.144 129.432 108.82 129.419 108.173C129.365 106.434 127.275 104.991 125.623 105.126C124.321 105.234 122.527 105.45 121.543 106.407C120.579 107.337 119.884 108.739 119.702 110.06C119.392 112.325 119.675 114.092 121.489 115.548H121.482Z" fill="#F2D7BD"/>
<g style="mix-blend-mode:multiply">
<path d="M121.752 110.162C122.824 108.409 124.206 107.573 126.31 108.227C127.362 108.557 128.198 109.103 129.23 108.584C129.25 108.577 129.264 108.557 129.284 108.544C128.987 108.935 128.246 109.13 127.861 109.083C126.796 108.962 126.014 108.834 124.955 109.11C124.928 109.11 124.901 109.103 124.874 109.083C124.584 109.279 124.26 109.494 124.18 109.568C123.613 110.135 123.235 111.031 122.858 111.732C122.237 112.898 121.826 114.348 121.806 115.676C121.806 115.851 121.604 115.669 121.516 115.561C121.502 115.561 121.489 115.554 121.482 115.548C120.963 115.137 120.579 114.692 120.289 114.22C120.046 112.791 120.99 111.395 121.752 110.155V110.162Z" fill="#F2D7BD"/>
</g>
<path d="M121.739 116.269C122.022 116.525 122.413 116.909 122.838 117.273C123.384 117.799 124.011 118.224 124.705 118.453C125.656 118.77 125.69 116.586 125.629 116.141C125.501 115.258 124.409 113.168 125.42 112.689C126.304 112.272 127.457 112.501 128.286 111.921C129.122 111.328 128.772 110.317 128.138 109.703C127.018 108.625 124.759 108.894 123.458 109.386C122.123 109.885 120.936 112.11 120.424 113.35C120.012 114.341 121.071 115.676 121.732 116.276L121.739 116.269Z" fill="#F2D7BD"/>
<path d="M127.787 120.28C127.787 120.28 129.358 120.105 130.087 120.253V121.608H127.942L127.787 120.28Z" fill="#181715"/>
<g style="mix-blend-mode:screen">
<path d="M129.412 102.794C129.412 102.794 131.523 106.292 131.792 112.042C131.792 112.042 131.55 113.701 130.882 115.197C130.882 115.197 130.086 106.811 129.412 102.794Z" fill="#3F3E3C"/>
</g>
<path d="M164.045 119.444L157.801 125.059C157.801 125.059 157.039 133.647 159.466 134.8C159.466 134.8 160.903 135.602 162.332 135.184C163.762 134.767 172.474 127.918 172.474 127.918L164.045 119.437V119.444Z" fill="#F2D7BD"/>
<g style="mix-blend-mode:multiply">
<path d="M167.76 131.538C170.188 129.724 172.48 127.924 172.48 127.924L164.052 119.444L160.667 122.491C162.683 125.76 165.016 128.861 167.767 131.538H167.76Z" fill="#F2D7BD"/>
</g>
<path d="M188.624 99.9354C188.624 99.9354 178.934 99.9893 173.721 106.737C168.509 113.485 159.46 120.199 159.46 120.199L173.876 135.993C173.876 135.993 199.291 108.294 188.624 99.9421V99.9354Z" fill="#AA9BC4"/>
<g style="mix-blend-mode:multiply" opacity="0.4">
<path d="M188.624 99.9354C188.624 99.9354 187.032 99.9421 184.793 100.401C180.343 103.023 178.428 102.76 176.398 107.748C173.863 113.977 167.329 122.248 164.126 125.302L173.876 135.987C173.876 135.987 199.291 108.288 188.624 99.9354Z" fill="#AA9BC4"/>
</g>
<path d="M187.585 99.0321C187.585 99.0321 179.23 101.391 177.309 107.681C175.387 113.977 166.985 150.123 166.985 150.123L220.127 150.332C220.127 150.332 225.576 101.688 196.601 96.8547L187.578 99.0321H187.585Z" fill="#AA9BC4"/>
<g style="mix-blend-mode:multiply" opacity="0.4">
<path d="M185.4 105.301C186.317 108.18 188.725 109.932 191.793 109.177C196.918 107.917 199.885 102.578 199.541 97.5288C198.603 97.2524 197.632 97.0232 196.607 96.8547L187.585 99.0321C187.585 99.0321 186.567 99.322 185.164 99.9624C184.807 101.742 184.868 103.623 185.4 105.301Z" fill="#AA9BC4"/>
</g>
<g style="mix-blend-mode:multiply" opacity="0.4">
<path d="M175.07 119.66C176.681 114.624 177.356 109.312 179.143 104.337C178.347 105.301 177.7 106.414 177.309 107.681C176.52 110.276 174.625 117.948 172.669 126.071C173.546 123.961 174.369 121.83 175.07 119.653V119.66Z" fill="#AA9BC4"/>
</g>
<g style="mix-blend-mode:multiply" opacity="0.4">
<path d="M205.508 100.272C205.414 100.306 205.319 100.34 205.225 100.374C199.473 102.558 197.983 109.238 197.504 114.712C197.012 120.368 197.464 126.927 194.16 131.848C191.226 136.216 186.338 139.276 181.536 141.211C179.001 142.229 176.385 142.943 173.681 143.328C172.029 143.564 170.228 143.658 168.623 143.132C167.639 147.318 166.985 150.123 166.985 150.123L220.127 150.332C220.127 150.332 224.349 112.534 205.508 100.272Z" fill="#AA9BC4"/>
</g>
<path d="M105.218 146.334H229.689L233.89 163.922H91.1113L105.218 146.334Z" fill="#DCD9C1"/>
<g style="mix-blend-mode:multiply">
<path d="M105.218 146.334H229.689L233.89 163.922H91.1113L105.218 146.334Z" fill="#DCD9C1"/>
</g>
<path d="M233.89 163.928H91.1113V167.414H233.89V163.928Z" fill="#727163"/>
<path d="M119.48 100.205C118.643 100.272 117.794 101.668 117.389 102.315C116.492 103.731 116.256 105.504 116.735 107.094C116.769 107.196 116.964 106.987 116.951 106.912C116.782 105.591 116.803 104.371 117.268 103.097C117.605 102.173 118.529 100.785 119.446 100.286C119.459 100.279 119.527 100.205 119.473 100.205H119.48Z" fill="#3D1F0C"/>
<path d="M116.782 101.378C115.299 102.901 114.995 104.843 115.44 106.872C115.461 106.953 115.629 106.784 115.623 106.717C115.407 104.742 115.4 102.996 116.809 101.412C116.836 101.378 116.816 101.331 116.782 101.371V101.378Z" fill="#3D1F0C"/>
<path d="M185.987 98.3782L187.491 106.103C187.491 106.103 189.992 109.818 194.847 106.103C194.847 106.103 197.808 103.812 197.504 102.335C197.208 100.859 195.731 92.4932 195.731 92.4932L185.987 98.3782Z" fill="#F2D7BD"/>
<g style="mix-blend-mode:multiply">
<path d="M185.987 98.3782L187.491 106.103C187.491 106.103 189.992 109.818 194.847 106.103C194.847 106.103 197.808 103.812 197.504 102.335C197.208 100.859 195.731 92.4932 195.731 92.4932L185.987 98.3782Z" fill="#F2D7BD"/>
</g>
<g style="mix-blend-mode:multiply">
<path d="M192.17 100.704C193.762 100.07 195.387 99.3489 196.769 98.3445C196.277 95.5874 195.731 92.5 195.731 92.5L185.987 98.3849L186.641 101.755C188.455 102.079 190.619 101.331 192.17 100.717V100.704Z" fill="#F2D7BD"/>
</g>
<path d="M200.883 127.372C200.883 127.372 197.956 142 191.759 142.809C185.562 143.611 165.34 146.611 165.34 146.611L166.547 155.246C166.547 155.246 190.168 156.796 201.199 152.421C203.27 151.599 205.077 150.284 206.088 148.673C210.849 141.083 212.818 135.056 213.411 130.156L200.889 127.372H200.883Z" fill="#F2D7BD"/>
<g style="mix-blend-mode:multiply">
<path d="M200.882 127.372C200.882 127.372 198.361 139.977 193.034 142.424C197.356 143.557 201.098 147.521 203.013 151.525C204.295 150.763 205.387 149.792 206.081 148.673C210.842 141.083 212.811 135.056 213.404 130.156L200.882 127.372Z" fill="#F2D7BD"/>
</g>
<path d="M208.367 130.041C211.253 131.012 212.272 131.841 214.928 133.31C215.272 130.978 218.496 120.138 216.176 111.557C214.618 105.78 210.539 101.553 205.461 101.27C205.461 101.27 200.154 101.789 199.736 110.303C199.372 117.779 198.448 126.913 197.767 129.037C201.948 129.084 204.342 128.686 208.361 130.041H208.367Z" fill="#AA9BC4"/>
<g style="mix-blend-mode:multiply" opacity="0.4">
<path d="M216.176 111.557C214.847 106.643 211.698 102.868 207.666 101.661C207.875 101.776 208.084 101.911 208.293 102.066C210.707 103.845 211.611 107.094 211.982 109.926C212.912 116.943 212.164 124.095 210.862 131.045C212.164 131.672 213.202 132.36 214.922 133.31C215.266 130.978 218.489 120.138 216.169 111.557H216.176Z" fill="#AA9BC4"/>
</g>
<path d="M167.72 145.64C164.76 143.624 157.794 144.703 157.794 144.703C157.794 144.703 146.459 143.82 145.913 145.519C145.353 147.231 156.169 147.527 156.169 147.527C156.169 147.527 143.768 147.723 143.714 149.24C143.667 150.763 156.358 150.77 156.358 150.77C156.358 150.77 141.712 152.091 142.528 154.477C143.276 156.668 153.424 154.821 156.337 154.727C150.35 156.668 144.261 157.268 144.004 158.05C143.155 160.645 151.799 161.003 161.226 157.888C156.884 159.446 155.137 160.275 154.207 160.794C152.501 161.744 152.649 166.045 163.371 161.124C163.532 161.023 163.687 160.929 163.843 160.834C167.834 158.61 171.159 154.558 171.246 152.543C171.327 150.736 171.489 146.577 167.713 145.64H167.72Z" fill="#F4D9BF"/>
<path opacity="0.4" d="M161.078 157.99C161.442 157.059 160.687 155.596 160.619 154.626C160.552 153.682 160.613 152.819 160.876 151.909C161.341 150.305 162.46 149.374 164.045 149.044C164.119 149.031 164.058 149.152 164.011 149.165C161.017 150.055 160.707 152.853 161.118 155.441C161.26 156.351 161.793 157.268 161.132 158.023C161.091 158.064 161.051 158.03 161.071 157.983L161.078 157.99Z" fill="#C39368"/>
<path opacity="0.4" d="M157.234 156.635C155.157 153.217 155.865 149.691 157.416 146.3C157.437 146.26 157.491 146.253 157.47 146.307C156.89 147.925 156.317 149.374 156.176 151.1C156.027 152.88 156.776 154.841 157.41 156.446C157.443 156.527 157.302 156.736 157.234 156.628V156.635Z" fill="#C39368"/>
<path d="M193.762 142.094C193.762 142.094 201.773 144.507 204.659 150.338C204.659 150.338 205.852 152.024 206.594 150.817C207.336 149.61 213.263 140.941 214.045 135.966C214.045 135.966 212.966 132.016 206.594 130.574C200.222 129.131 200.053 130.836 199.217 132.32C198.388 133.796 192.582 141.669 193.762 142.094Z" fill="#303030"/>
<g style="mix-blend-mode:screen">
<path d="M211.206 142.04C210.04 143.644 209.109 145.525 207.646 146.894C206.466 147.999 205.164 148.377 203.728 147.467C202.137 146.456 200.997 144.946 199.615 143.698C198.516 142.714 196.344 142.114 195.711 140.685C195.043 139.175 196.385 137.517 197.147 136.317C198.442 134.268 199.885 132.137 201.84 130.661C202.143 130.432 202.454 130.223 202.777 130.034C200.094 130.007 199.844 131.227 199.224 132.326C198.394 133.803 192.588 141.676 193.769 142.101C193.769 142.101 201.779 144.514 204.665 150.345C204.665 150.345 205.859 152.03 206.601 150.824C207.208 149.833 211.314 143.82 213.195 138.946C212.562 140.004 211.934 141.063 211.22 142.054L211.206 142.04Z" fill="#303030"/>
</g>
<g style="mix-blend-mode:multiply">
<path d="M208.388 131.093C207.99 130.951 207.565 130.816 207.106 130.702C206.398 133.142 204.396 135.225 203.04 137.308C201.537 139.627 200.053 141.959 198.651 144.339C198.893 144.48 199.129 144.635 199.372 144.79C202.568 140.355 205.65 135.832 208.381 131.093H208.388Z" fill="#303030"/>
</g>
<path d="M152.797 148.424C142.002 148.424 140.161 143.591 138.933 140.368C138.151 138.319 137.767 137.49 136.142 137.766C135.798 137.82 135.481 137.591 135.42 137.254C135.366 136.917 135.596 136.593 135.933 136.533C138.637 136.081 139.379 138.029 140.1 139.923C141.267 142.991 142.865 147.177 152.791 147.177C152.966 147.177 153.141 147.177 153.317 147.177C157.983 147.109 162.069 147.076 165.677 147.042C175.785 146.954 182.46 146.894 188.111 146.233C194.288 145.505 197.261 142.161 197.295 142.128C197.524 141.872 197.916 141.838 198.172 142.067C198.435 142.29 198.462 142.687 198.239 142.943C198.111 143.098 194.942 146.691 188.259 147.473C182.541 148.148 175.839 148.201 165.69 148.296C162.089 148.33 158.003 148.363 153.337 148.431C153.155 148.431 152.973 148.431 152.797 148.431V148.424Z" fill="#434343"/>
<path d="M118.326 138.312L117.302 138.326L115.993 143.631H117.524L118.326 138.312Z" fill="#316BA4"/>
<path d="M120.963 153.736H117.302V155.273H120.963V153.736Z" fill="#0C1A1E"/>
<path d="M139.136 153.736H135.474V155.273H139.136V153.736Z" fill="#0C1A1E"/>
<path d="M141.408 152.644C141.408 152.644 138.455 139.701 137.497 136.492C136.533 133.283 134.813 133.31 134.813 133.31H121.084C121.084 133.31 119.358 133.283 118.401 136.492C117.443 139.701 114.49 152.644 114.49 152.644C114.49 152.644 114.186 154.181 116.964 154.376H138.947C141.718 154.181 141.422 152.644 141.422 152.644H141.408Z" fill="#ECEDF2"/>
<path d="M141.408 152.644C141.408 152.644 138.455 139.701 137.497 136.492C136.533 133.283 134.813 133.31 134.813 133.31H121.084C121.084 133.31 119.358 133.283 118.401 136.492C117.443 139.701 114.49 152.644 114.49 152.644C114.49 152.644 114.186 154.181 116.964 154.376H138.947C141.718 154.181 141.422 152.644 141.422 152.644H141.408Z" fill="#B1B3B8"/>
<path d="M140.741 151.693C140.741 151.693 137.936 139.391 137.018 136.337C136.108 133.29 134.463 133.31 134.463 133.31H121.415C121.415 133.31 119.776 133.283 118.859 136.337C117.942 139.384 115.137 151.693 115.137 151.693C115.137 151.693 114.854 153.149 117.49 153.345H138.387C141.024 153.156 140.741 151.693 140.741 151.693Z" fill="#ECEDF2"/>
<path d="M138.583 147.824C137.801 144.46 136.459 138.744 135.906 136.897C135.103 134.22 133.667 134.241 133.667 134.241H122.217C122.217 134.241 120.774 134.22 119.979 136.897C119.426 138.744 118.084 144.453 117.302 147.824H138.59H138.583Z" fill="#000106"/>
<path d="M138.36 147.561C137.585 144.224 136.317 138.838 135.784 137.065C134.996 134.429 133.579 134.45 133.579 134.45H122.305C122.305 134.45 120.889 134.429 120.1 137.065C119.567 138.838 118.3 144.217 117.524 147.561H138.36Z" fill="#44545A"/>
<g style="mix-blend-mode:screen">
<path d="M136.169 141.002C136.243 141.103 136.324 141.204 136.398 141.312C135.98 139.593 135.596 138.083 135.36 137.301C134.611 134.807 133.269 134.827 133.269 134.827H122.595C122.595 134.827 121.253 134.807 120.505 137.301C120.289 138.036 119.931 139.418 119.547 141.009C119.635 140.874 119.722 140.739 119.803 140.604C119.965 139.971 120.113 139.438 120.221 139.074C120.997 136.485 122.386 136.506 122.386 136.506H133.472C133.472 136.506 134.861 136.485 135.636 139.074C135.771 139.519 135.946 140.193 136.155 141.002H136.169Z" fill="#354349"/>
</g>
<path d="M134.888 150.844C134.888 151.734 134.166 152.455 133.276 152.455C132.386 152.455 131.664 151.734 131.664 150.844C131.664 149.954 132.386 149.233 133.276 149.233C134.166 149.233 134.888 149.954 134.888 150.844Z" fill="#3E517F"/>
<path d="M134.564 150.844C134.564 151.552 133.991 152.132 133.276 152.132C132.561 152.132 131.988 151.559 131.988 150.844C131.988 150.129 132.561 149.556 133.276 149.556C133.991 149.556 134.564 150.129 134.564 150.844Z" fill="#316BA4"/>
<path d="M138.913 150.844C138.913 151.734 138.192 152.455 137.302 152.455C136.412 152.455 135.697 151.734 135.697 150.844C135.697 149.954 136.418 149.233 137.302 149.233C138.185 149.233 138.913 149.954 138.913 150.844Z" fill="#3E517F"/>
<path d="M138.59 150.844C138.59 151.552 138.016 152.132 137.302 152.132C136.587 152.132 136.014 151.559 136.014 150.844C136.014 150.129 136.587 149.556 137.302 149.556C138.016 149.556 138.59 150.129 138.59 150.844Z" fill="#316BA4"/>
<path d="M130.612 135.993H130.484H128.522L129.095 136.56H130.484L131.051 135.993H130.612Z" fill="#83CED1"/>
<path d="M130.484 138.043H129.095L128.805 138.326L129.095 138.609H130.484L130.768 138.326L130.484 138.043Z" fill="#83CED1"/>
<path d="M131.051 136.479V136.607V138.016L130.795 138.312L130.484 138.002V136.607L131.051 136.041V136.479Z" fill="#83CED1"/>
<path d="M130.612 140.645H130.484H128.522L129.095 140.078H130.484L131.051 140.645H130.612Z" fill="#83CED1"/>
<path d="M128.522 140.159V140.025V138.622L128.778 138.326L129.095 138.636V140.025L128.522 140.598V140.159Z" fill="#83CED1"/>
<path d="M128.522 136.479V136.607V138.016L128.778 138.312L129.095 138.002V136.607L128.522 136.041V136.479Z" fill="#83CED1"/>
<path d="M131.051 140.159V140.025V138.622L130.795 138.326L130.484 138.636V140.025L131.051 140.598V140.159Z" fill="#83CED1"/>
<g opacity="0.2">
<path d="M133.721 135.993H133.593H131.631L132.197 136.56H133.593L134.159 135.993H133.721Z" fill="black"/>
<path d="M133.593 138.043H132.197L131.914 138.326L132.197 138.609H133.593L133.876 138.326L133.593 138.043Z" fill="black"/>
<path d="M134.159 136.479V136.607V138.016L133.903 138.312L133.593 138.002V136.607L134.159 136.041V136.479Z" fill="black"/>
<path d="M131.631 136.479V136.607V138.016L131.887 138.312L132.197 138.002V136.607L131.631 136.041V136.479Z" fill="black"/>
<path d="M133.721 140.645H133.593H131.631L132.197 140.078H133.593L134.159 140.645H133.721Z" fill="black"/>
<path d="M134.159 140.159V140.025V138.622L133.903 138.326L133.593 138.636V140.025L134.159 140.598V140.159Z" fill="black"/>
<path d="M131.631 140.159V140.025V138.622L131.887 138.326L132.197 138.636V140.025L131.631 140.598V140.159Z" fill="black"/>
</g>
<g opacity="0.2">
<path d="M127.504 135.993H127.376H125.414L125.98 136.56H127.376L127.942 135.993H127.504Z" fill="black"/>
<path d="M127.376 138.043H125.98L125.697 138.326L125.98 138.609H127.376L127.659 138.326L127.376 138.043Z" fill="black"/>
<path d="M127.942 136.479V136.607V138.016L127.686 138.312L127.376 138.002V136.607L127.942 136.041V136.479Z" fill="black"/>
<path d="M125.414 136.479V136.607V138.016L125.67 138.312L125.98 138.002V136.607L125.414 136.041V136.479Z" fill="black"/>
<path d="M127.504 140.645H127.376H125.414L125.98 140.078H127.376L127.942 140.645H127.504Z" fill="black"/>
<path d="M127.942 140.159V140.025V138.622L127.686 138.326L127.376 138.636V140.025L127.942 140.598V140.159Z" fill="black"/>
<path d="M125.414 140.159V140.025V138.622L125.67 138.326L125.98 138.636V140.025L125.414 140.598V140.159Z" fill="black"/>
</g>
<g opacity="0.3">
<path d="M130.612 142.269H130.484H128.522L129.095 142.836H130.484L131.051 142.269H130.612Z" fill="black"/>
<path d="M130.484 144.319H129.095L128.805 144.602L129.095 144.885H130.484L130.768 144.602L130.484 144.319Z" fill="black"/>
<path d="M131.051 142.755V142.883V144.292L130.795 144.588L130.484 144.278V142.883L131.051 142.317V142.755Z" fill="black"/>
<path d="M128.522 142.755V142.883V144.292L128.778 144.588L129.095 144.278V142.883L128.522 142.317V142.755Z" fill="black"/>
<path d="M130.612 146.921H130.484H128.522L129.095 146.354H130.484L131.051 146.921H130.612Z" fill="black"/>
<path d="M131.051 146.435V146.307V144.898L130.795 144.602L130.484 144.912V146.307L131.051 146.873V146.435Z" fill="black"/>
<path d="M128.522 146.435V146.307V144.898L128.778 144.602L129.095 144.912V146.307L128.522 146.873V146.435Z" fill="black"/>
</g>
<g opacity="0.2">
<path d="M133.721 142.269H133.593H131.631L132.197 142.836H133.593L134.159 142.269H133.721Z" fill="black"/>
<path d="M133.593 144.319H132.197L131.914 144.602L132.197 144.885H133.593L133.876 144.602L133.593 144.319Z" fill="black"/>
<path d="M134.159 142.755V142.883V144.292L133.903 144.588L133.593 144.278V142.883L134.159 142.317V142.755Z" fill="black"/>
<path d="M131.631 142.755V142.883V144.292L131.887 144.588L132.197 144.278V142.883L131.631 142.317V142.755Z" fill="black"/>
<path d="M133.721 146.921H133.593H131.631L132.197 146.354H133.593L134.159 146.921H133.721Z" fill="black"/>
<path d="M134.159 146.435V146.307V144.898L133.903 144.602L133.593 144.912V146.307L134.159 146.873V146.435Z" fill="black"/>
<path d="M131.631 146.435V146.307V144.898L131.887 144.602L132.197 144.912V146.307L131.631 146.873V146.435Z" fill="black"/>
</g>
<g opacity="0.2">
<path d="M127.504 142.269H127.376H125.414L125.98 142.836H127.376L127.942 142.269H127.504Z" fill="black"/>
<path d="M127.376 144.319H125.98L125.697 144.602L125.98 144.885H127.376L127.659 144.602L127.376 144.319Z" fill="black"/>
<path d="M127.942 142.755V142.883V144.292L127.686 144.588L127.376 144.278V142.883L127.942 142.317V142.755Z" fill="black"/>
<path d="M125.414 142.755V142.883V144.292L125.67 144.588L125.98 144.278V142.883L125.414 142.317V142.755Z" fill="black"/>
<path d="M127.504 146.921H127.376H125.414L125.98 146.354H127.376L127.942 146.921H127.504Z" fill="black"/>
<path d="M127.942 146.435V146.307V144.898L127.686 144.602L127.376 144.912V146.307L127.942 146.873V146.435Z" fill="black"/>
<path d="M125.414 146.435V146.307V144.898L125.67 144.602L125.98 144.912V146.307L125.414 146.873V146.435Z" fill="black"/>
</g>
<path d="M120.781 151.666C120.781 152.098 120.43 152.448 119.999 152.448H116.782C116.351 152.448 116 152.098 116 151.666C116 151.235 116.351 150.884 116.782 150.884H119.999C120.43 150.884 120.781 151.235 120.781 151.666Z" fill="#3E517F"/>
<path d="M120.289 151.666C120.289 152.01 120.012 152.287 119.668 152.287H117.113C116.769 152.287 116.492 152.01 116.492 151.666C116.492 151.323 116.769 151.046 117.113 151.046H119.668C120.012 151.046 120.289 151.323 120.289 151.666Z" fill="#316BA4"/>
<path d="M130.612 135.993H130.484H128.522L129.095 136.56H130.484L131.051 135.993H130.612Z" fill="#83CED1"/>
<path d="M130.484 138.043H129.095L128.805 138.326L129.095 138.609H130.484L130.768 138.326L130.484 138.043Z" fill="#83CED1"/>
<path d="M131.051 136.479V136.607V138.016L130.795 138.312L130.484 138.002V136.607L131.051 136.041V136.479Z" fill="#83CED1"/>
<path d="M130.612 140.645H130.484H128.522L129.095 140.078H130.484L131.051 140.645H130.612Z" fill="#83CED1"/>
<path d="M128.522 140.159V140.025V138.622L128.778 138.326L129.095 138.636V140.025L128.522 140.598V140.159Z" fill="#83CED1"/>
<path d="M133.721 135.993H133.593H131.631L132.197 136.56H133.593L134.159 135.993H133.721Z" fill="#83CED1"/>
<path d="M134.159 136.479V136.607V138.016L133.903 138.312L133.593 138.002V136.607L134.159 136.041V136.479Z" fill="#83CED1"/>
<path d="M131.631 136.479V136.607V138.016L131.887 138.312L132.197 138.002V136.607L131.631 136.041V136.479Z" fill="#83CED1"/>
<path d="M133.721 140.645H133.593H131.631L132.197 140.078H133.593L134.159 140.645H133.721Z" fill="#83CED1"/>
<path d="M134.159 140.159V140.025V138.622L133.903 138.326L133.593 138.636V140.025L134.159 140.598V140.159Z" fill="#83CED1"/>
<path d="M131.631 140.159V140.025V138.622L131.887 138.326L132.197 138.636V140.025L131.631 140.598V140.159Z" fill="#83CED1"/>
<path d="M127.942 136.479V136.607V138.016L127.686 138.312L127.376 138.002V136.607L127.942 136.041V136.479Z" fill="#83CED1"/>
<path d="M127.942 140.159V140.025V138.622L127.686 138.326L127.376 138.636V140.025L127.942 140.598V140.159Z" fill="#83CED1"/>
<path d="M130.612 142.269H130.484H128.522L129.095 142.836H130.484L131.051 142.269H130.612Z" fill="#83CED1"/>
<path d="M130.484 144.319H129.095L128.805 144.602L129.095 144.885H130.484L130.768 144.602L130.484 144.319Z" fill="#83CED1"/>
<path d="M131.051 142.755V142.883V144.292L130.795 144.588L130.484 144.278V142.883L131.051 142.317V142.755Z" fill="#83CED1"/>
<path d="M130.612 146.921H130.484H128.522L129.095 146.354H130.484L131.051 146.921H130.612Z" fill="#83CED1"/>
<path d="M131.051 146.435V146.307V144.898L130.795 144.602L130.484 144.912V146.307L131.051 146.873V146.435Z" fill="#83CED1"/>
<path d="M133.721 142.269H133.593H131.631L132.197 142.836H133.593L134.159 142.269H133.721Z" fill="#83CED1"/>
<path d="M134.159 142.755V142.883V144.292L133.903 144.588L133.593 144.278V142.883L134.159 142.317V142.755Z" fill="#83CED1"/>
<path d="M131.631 142.755V142.883V144.292L131.887 144.588L132.197 144.278V142.883L131.631 142.317V142.755Z" fill="#83CED1"/>
<path d="M133.721 146.921H133.593H131.631L132.197 146.354H133.593L134.159 146.921H133.721Z" fill="#83CED1"/>
<path d="M134.159 146.435V146.307V144.898L133.903 144.602L133.593 144.912V146.307L134.159 146.873V146.435Z" fill="#83CED1"/>
<path d="M131.631 146.435V146.307V144.898L131.887 144.602L132.197 144.912V146.307L131.631 146.873V146.435Z" fill="#83CED1"/>
<path d="M127.942 142.755V142.883V144.292L127.686 144.588L127.376 144.278V142.883L127.942 142.317V142.755Z" fill="#83CED1"/>
<path d="M127.942 146.435V146.307V144.898L127.686 144.602L127.376 144.912V146.307L127.942 146.873V146.435Z" fill="#83CED1"/>
<path d="M151.921 57.17C150.599 58.4778 149.992 60.5473 150.896 62.4146C151.799 64.2819 153.62 65.5896 155.67 66.3716C155.178 67.0794 154.894 67.9153 154.989 68.7377C155.11 69.7489 155.677 70.8814 156.486 71.7577C155.899 72.2633 155.441 72.9374 155.137 73.8137C154.53 75.5664 154.692 77.8314 155.488 79.4897C156.378 81.3368 157.727 83.0288 159.54 84.0669C159.54 84.0669 159.54 84.0669 159.547 84.0669C159.23 85.0915 160.046 86.4869 160.613 87.2487C161.476 88.4216 162.602 89.298 163.863 90.0125C165.252 90.7945 166.675 91.3473 168.246 91.6236C169.102 91.7719 169.972 91.8663 170.835 91.9742C171.503 92.0551 172.191 92.2101 172.865 92.1629C173.081 92.1495 173.317 92.1225 173.532 92.1495C173.768 92.1832 173.714 92.655 173.714 92.7764C173.714 92.9853 173.843 93.2482 173.93 93.4437C174.2 94.0302 174.557 94.5695 175.07 94.974C176.189 95.8503 177.639 96.3491 179.042 96.5514C180.7 96.7873 182.218 96.7266 183.849 96.2952C184.652 96.0862 185.623 95.7761 186.196 95.1425C186.971 95.7155 187.915 96.039 188.711 95.8436C189.359 95.6885 189.797 95.1829 190.067 94.556C190.154 94.6571 190.235 94.7515 190.316 94.8391C191.233 95.8705 192.919 96.6727 194.315 96.612C195.785 96.5446 197.113 95.702 197.794 94.374C197.983 94.0032 198.118 93.6325 198.212 93.255C198.543 93.7134 198.927 94.0976 199.318 94.347C200.775 95.284 203.276 95.6481 204.733 94.4953C205.872 93.592 206.425 92.1697 206.479 90.7406C206.634 90.8349 206.789 90.9158 206.931 90.9765C208.745 91.7517 210.957 91.6236 212.636 90.5788C214.477 89.4328 215.205 87.788 215.077 85.6308C215.063 85.4556 215.057 85.2803 215.036 85.0983C216.978 84.9769 218.86 84.1613 220.08 82.6041C221.388 80.9458 221.732 78.7954 220.93 76.8203C220.606 76.0248 220.188 75.3709 219.669 74.8182C220.977 74.562 222.204 74.0025 223.276 73.0048C225.286 71.1443 226.183 68.7647 226.547 66.0885C226.891 63.5538 226.79 60.9787 225.326 58.7879C224.78 57.9655 224.052 57.1363 223.209 56.5364C224.504 54.8983 224.726 52.512 224.14 50.5301C223.802 49.3774 223.142 48.0898 222.117 47.4022C221.516 46.9978 220.883 46.8697 220.289 46.9708C223.162 35.6862 205.023 28.325 198.651 32.8348C197.889 31.6281 196.688 30.6304 195.616 30.2732C194.396 29.8754 192.366 29.6058 191.368 30.7248C191.213 30.9001 191.044 31.0888 190.869 31.2911C190.134 29.5788 188.165 28.2778 186.452 27.961C185.063 27.7048 183.593 27.6846 182.723 28.9519C182.231 29.6665 181.901 30.4889 181.732 31.345C179.905 30.0709 177.504 29.5923 175.333 30.3338C173.613 30.9203 172.096 32.309 171.482 34.0482C171.375 34.3583 171.294 34.6683 171.246 34.9717C170.255 34.0482 168.805 33.2595 167.41 33.6774C165.839 34.1425 164.982 35.7739 164.881 37.412C164.335 37.0479 163.728 36.7446 163.114 36.5558C161.233 35.9626 158.691 36.4817 157.234 37.8771C155.805 39.2455 155.083 41.8476 155.751 43.7351C156.041 44.5575 156.472 45.4406 157.005 46.263C156.23 46.1349 155.441 46.1147 154.658 46.2495C152.737 46.5731 150.565 47.6247 149.837 49.5796C148.893 52.1345 149.864 55.3432 151.921 57.17Z" fill="#59544F"/>
<g style="mix-blend-mode:multiply">
<path d="M151.921 57.17C150.599 58.4778 149.992 60.5473 150.896 62.4146C151.799 64.2819 153.62 65.5896 155.67 66.3716C155.178 67.0794 154.894 67.9153 154.989 68.7377C155.11 69.7489 155.677 70.8814 156.486 71.7577C155.899 72.2633 155.441 72.9374 155.137 73.8137C154.53 75.5664 154.692 77.8314 155.488 79.4897C156.378 81.3368 157.727 83.0288 159.54 84.0669C159.54 84.0669 159.54 84.0669 159.547 84.0669C159.23 85.0915 160.046 86.4869 160.613 87.2487C161.476 88.4216 162.602 89.298 163.863 90.0125C165.252 90.7945 166.675 91.3473 168.246 91.6236C169.102 91.7719 169.972 91.8663 170.835 91.9742C171.503 92.0551 172.191 92.2101 172.865 92.1629C173.081 92.1495 173.317 92.1225 173.532 92.1495C173.768 92.1832 173.714 92.655 173.714 92.7764C173.714 92.9853 173.843 93.2482 173.93 93.4437C174.2 94.0302 174.557 94.5695 175.07 94.974C176.189 95.8503 177.639 96.3491 179.042 96.5514C180.7 96.7873 182.218 96.7266 183.849 96.2952C184.652 96.0862 185.623 95.7761 186.196 95.1425C186.971 95.7155 187.915 96.039 188.711 95.8436C189.359 95.6885 189.797 95.1829 190.067 94.556C190.154 94.6571 190.235 94.7515 190.316 94.8391C191.233 95.8705 192.919 96.6727 194.315 96.612C195.785 96.5446 197.113 95.702 197.794 94.374C197.983 94.0032 198.118 93.6325 198.212 93.255C198.543 93.7134 198.927 94.0976 199.318 94.347C200.775 95.284 203.276 95.6481 204.733 94.4953C205.872 93.592 206.425 92.1697 206.479 90.7406C206.634 90.8349 206.789 90.9158 206.931 90.9765C208.745 91.7517 210.957 91.6236 212.636 90.5788C214.477 89.4328 215.205 87.788 215.077 85.6308C215.063 85.4556 215.057 85.2803 215.036 85.0983C216.978 84.9769 218.86 84.1613 220.08 82.6041C221.388 80.9458 221.732 78.7954 220.93 76.8203C220.606 76.0248 220.188 75.3709 219.669 74.8182C220.977 74.562 222.204 74.0025 223.276 73.0048C225.286 71.1443 226.183 68.7647 226.547 66.0885C226.891 63.5538 226.79 60.9787 225.326 58.7879C224.78 57.9655 224.052 57.1363 223.209 56.5364C224.504 54.8983 224.726 52.512 224.14 50.5301C223.802 49.3774 223.142 48.0898 222.117 47.4022C221.516 46.9978 220.883 46.8697 220.289 46.9708C223.162 35.6862 205.023 28.325 198.651 32.8348C197.889 31.6281 196.688 30.6304 195.616 30.2732C194.396 29.8754 192.366 29.6058 191.368 30.7248C191.213 30.9001 191.044 31.0888 190.869 31.2911C190.134 29.5788 188.165 28.2778 186.452 27.961C185.063 27.7048 183.593 27.6846 182.723 28.9519C182.231 29.6665 181.901 30.4889 181.732 31.345C179.905 30.0709 177.504 29.5923 175.333 30.3338C173.613 30.9203 172.096 32.309 171.482 34.0482C171.375 34.3583 171.294 34.6683 171.246 34.9717C170.255 34.0482 168.805 33.2595 167.41 33.6774C165.839 34.1425 164.982 35.7739 164.881 37.412C164.335 37.0479 163.728 36.7446 163.114 36.5558C161.233 35.9626 158.691 36.4817 157.234 37.8771C155.805 39.2455 155.083 41.8476 155.751 43.7351C156.041 44.5575 156.472 45.4406 157.005 46.263C156.23 46.1349 155.441 46.1147 154.658 46.2495C152.737 46.5731 150.565 47.6247 149.837 49.5796C148.893 52.1345 149.864 55.3432 151.921 57.17ZM160.195 46.5394C159.271 44.3957 159.716 41.497 162.042 40.5263C163.377 39.9668 164.861 40.196 166.088 40.8903C166.263 39.3938 167.059 37.9378 168.306 37.5333C169.696 37.0816 171.294 37.6277 172.48 38.6456C172.986 36.9738 174.126 35.5379 175.913 35.0795C177.207 34.7492 179.055 35.093 180.309 35.9828C180.869 35.12 181.712 34.4189 182.636 33.9808C184.45 33.1112 186.655 33.5089 188.354 34.4459C189.561 35.1133 190.41 36.1851 190.997 37.4052C190.997 37.1423 191.011 36.8727 191.038 36.6098C191.125 35.8683 191.456 35.2076 191.914 34.6279C192.858 33.4347 194.557 33.2527 195.92 33.6437C197.369 34.0549 198.725 35.2009 199.453 36.5963C199.514 36.5019 199.568 36.4008 199.628 36.3132C201.678 33.4212 205.677 33.6302 208.644 34.7088C214.396 36.7918 217.201 43.2834 215.825 48.9864C218.307 47.8876 221.368 48.2583 222.494 51.2244C223.256 53.2265 222.481 55.8151 220.91 57.3992C222.218 57.4195 223.6 58.1475 224.396 59.1991C225.987 61.2821 225.846 64.5515 224.848 66.8435C223.762 69.3174 221.395 71.2926 218.583 70.2612C217.019 69.6815 215.852 68.2726 215.084 66.7019C214.625 67.5311 213.917 68.2321 213 68.6838C210.316 70.0185 207.417 67.585 205.589 65.893C205.4 65.7177 205.663 65.3739 205.872 65.529C207.417 66.7221 210.195 66.3379 212.063 65.4953C204.773 65.347 198.023 59.5766 197.841 52.1749C197.531 53.4085 197.524 54.7567 197.814 55.9432C198.125 57.2105 198.752 58.343 198.806 59.671C198.806 59.7856 198.691 59.9137 198.576 59.9002C196.688 59.6642 195.434 58.0329 194.51 56.5094C194.254 56.0915 194.018 55.6466 193.795 55.1949C193.688 55.3499 193.586 55.478 193.506 55.5589C192.535 56.5431 190.781 55.9229 189.831 55.2825C189.237 54.8848 188.718 54.3455 188.273 53.7456C183.087 57.6958 171.658 54.2512 171.739 48.1774C168.576 51.4738 162.116 51.0559 160.188 46.5663L160.195 46.5394ZM153.546 50.5099C153.836 48.7841 155.488 48.2516 157.019 48.5145C157.187 48.5415 157.214 48.6965 157.153 48.8111C158.859 49.1482 160.397 50.3413 160.033 52.3232C159.655 54.3995 156.958 55.2151 155.259 54.3792C153.876 53.6984 153.303 51.9524 153.546 50.5166V50.5099Z" fill="#59544F"/>
</g>
<path d="M209.783 82.7254C216.27 81.2896 213.688 71.1982 209.729 70.632C205.765 70.0657 205.636 76.7663 205.636 76.7663C205.636 76.7663 203.984 70.5308 202.649 64.7807C182.393 64.9964 168.03 58.9901 164.564 52.7479C156.034 61.2079 160.12 70.9825 160.12 70.9825C160.12 70.9825 160.289 71.515 161.334 75.8158C158.279 90.5383 162.42 94.6908 173.02 99.4096C191.833 104.917 205.94 89.7699 205.94 89.7699C207.147 88.5295 209.291 85.1387 209.783 82.7254Z" fill="#F4D9BF"/>
<g style="mix-blend-mode:multiply" opacity="0.6">
<path d="M173.762 92.9179C174.004 92.9179 174.24 92.9516 174.483 92.9988C174.719 93.0528 174.955 93.1067 175.184 93.1808C175.899 93.41 176.601 93.6932 177.248 94.0774C177.922 94.4684 178.59 94.8931 179.136 95.4593C179.534 95.8773 181.037 97.1311 180.538 97.7985C179.675 98.9512 176.627 98.0816 175.683 97.4277C174.712 96.7536 173.883 95.4391 173.337 94.3673C172.979 93.6595 172.467 92.891 173.762 92.9247V92.9179Z" fill="#E3BB94"/>
</g>
<path d="M174.948 94.0437C175.09 94.0437 175.238 94.0639 175.38 94.0909C175.522 94.1178 175.663 94.1516 175.798 94.1987C176.223 94.3403 176.648 94.5088 177.032 94.7313C177.437 94.9605 177.835 95.2166 178.158 95.5537C178.394 95.8031 179.298 96.5514 178.994 96.9491C178.475 97.6367 176.654 97.1176 176.095 96.7266C175.515 96.3222 175.016 95.5402 174.692 94.8998C174.476 94.4751 174.173 94.0167 174.942 94.037L174.948 94.0437Z" fill="#A03835"/>
<g style="mix-blend-mode:multiply" opacity="0.6">
<path d="M177.497 86.8038C179.122 87.4577 180.761 88.2127 182.204 89.2104C184.052 90.4844 185.643 92.0483 186.944 93.8415C186.567 93.6257 186.182 93.4168 185.812 93.1876C184.153 92.1629 182.474 91.1855 180.768 90.2417C179.082 89.3047 177.376 88.4149 175.683 87.4846C174.49 86.8307 173.175 86.3656 172.002 85.678C173.816 85.5365 175.866 86.1499 177.497 86.8038Z" fill="#E3BB94"/>
</g>
<g style="mix-blend-mode:multiply" opacity="0.6">
<path d="M169.932 96.2211C169.628 95.1695 169.271 94.1381 169.048 93.0595C168.805 91.8731 168.637 90.6799 168.569 89.4733C169.122 90.4912 169.655 91.7383 169.959 92.7494C170.316 93.9291 170.168 95.0616 169.925 96.2143L169.932 96.2211Z" fill="#E3BB94"/>
</g>
<g style="mix-blend-mode:multiply" opacity="0.6">
<path d="M171.718 87.0802C170.64 87.8487 169.082 88.1385 167.848 87.788C166.479 87.397 165.36 86.1836 165.387 84.8556C167.099 86.4128 169.487 87.006 171.718 87.0802Z" fill="#E3BB94"/>
</g>
<g style="mix-blend-mode:multiply">
<path d="M181.435 77.9258C179.466 77.8247 177.545 78.0674 175.63 78.5055C177.039 76.982 179.965 76.4899 181.435 77.9258Z" fill="#E3BB94"/>
</g>
<g style="mix-blend-mode:multiply" opacity="0.6">
<path d="M181.887 63.3649C175.886 62.2593 169.776 60.4055 165.366 55.9834C165.164 55.7812 161.664 62.0436 160.741 65.2793C160.295 66.8365 159.952 68.4207 159.81 70.0385C159.81 70.0385 159.81 70.0385 159.81 70.0453C159.041 67.396 157.625 59.6438 164.571 52.7544C167.254 57.5878 176.486 62.2795 189.925 64.0457C187.221 64.1064 184.584 63.857 181.894 63.3649H181.887Z" fill="#E3BB94"/>
</g>
<g style="mix-blend-mode:multiply">
<path d="M165.333 80.42C163.998 80.3998 162.676 80.5683 161.368 80.8582C161.691 80.2447 162.514 79.7998 163.134 79.7257C163.991 79.6178 164.719 79.9212 165.333 80.4267V80.42Z" fill="#E3BB94"/>
</g>
<g style="mix-blend-mode:multiply" opacity="0.6">
<path d="M187.706 97.0839C194.079 94.5223 199.628 89.9788 202.393 83.6018C204.328 79.1392 204.45 74.2182 203.769 69.432C204.76 73.4565 205.636 76.7663 205.636 76.7663C205.636 76.7663 205.765 70.0657 209.729 70.632C209.837 70.6454 209.945 70.6724 210.046 70.6994C209.541 70.7129 209.028 70.8746 208.549 71.2589C206.358 72.9846 206.661 76.099 207.45 78.4853C207.605 78.9437 208.259 78.883 208.286 78.3909C208.361 77.3326 208.179 75.526 209.102 74.771C210.876 73.3284 212.056 76.2068 211.894 77.4135C211.766 78.3303 209.898 80.1773 210.754 81.1683C211.098 81.5727 211.456 81.7682 211.8 81.8289C211.26 82.2401 210.593 82.5502 209.79 82.7254C209.298 85.1455 207.154 88.5295 205.947 89.7699C205.947 89.7699 191.84 104.917 173.027 99.4096C167.18 96.8008 163.31 94.374 161.509 90.2417C167.383 97.8524 178.3 100.859 187.706 97.0772V97.0839Z" fill="#E3BB94"/>
</g>
<path d="M177.875 75.4855C178.145 76.7866 178.779 77.6831 179.284 77.4944C179.797 77.2989 179.986 76.0922 179.709 74.7912C179.439 73.4902 178.799 72.6003 178.3 72.7891C177.787 72.9778 177.599 74.1912 177.875 75.4855Z" fill="#673121"/>
<path d="M178.718 74.1103C178.826 74.4946 179.035 74.7373 179.19 74.6699C179.345 74.5957 179.372 74.2317 179.257 73.8542C179.149 73.4632 178.94 73.2138 178.779 73.2879C178.637 73.3688 178.603 73.7328 178.718 74.1171V74.1103Z" fill="white"/>
<path d="M162.15 78.3303C162.413 79.6245 163.054 80.5279 163.559 80.3256C164.065 80.1369 164.254 78.9302 163.977 77.6292C163.708 76.3282 163.067 75.4383 162.568 75.6271C162.056 75.8226 161.867 77.036 162.143 78.3303H162.15Z" fill="#673121"/>
<path d="M162.986 76.9483C163.094 77.3326 163.31 77.5753 163.458 77.5011C163.613 77.4337 163.64 77.0629 163.526 76.6787C163.418 76.3012 163.202 76.0518 163.06 76.1192C162.905 76.1933 162.878 76.5641 162.986 76.9483Z" fill="white"/>
<path d="M211.004 74.6699C211.004 74.6699 210.943 74.6227 210.808 74.562C210.667 74.5148 210.458 74.4474 210.201 74.4609C210.073 74.4811 209.918 74.4946 209.777 74.562C209.622 74.6092 209.48 74.7036 209.345 74.8182C209.224 74.9395 209.096 75.0743 209.008 75.2361C208.9 75.3844 208.866 75.5529 208.785 75.7147C208.745 75.8833 208.718 76.0518 208.684 76.2136C208.657 76.3753 208.678 76.5304 208.671 76.6922C208.671 77.0023 208.745 77.2854 208.779 77.5213C208.907 77.9797 209.055 78.2763 209.055 78.2763C209.055 78.2763 209.136 77.946 209.17 77.4876C209.21 77.2652 209.217 76.9955 209.271 76.7326C209.311 76.4562 209.359 76.1799 209.44 75.917C209.48 75.7956 209.507 75.6541 209.581 75.5529C209.635 75.4383 209.702 75.3372 209.77 75.2429C209.844 75.162 209.912 75.0676 210.006 75.0204C210.094 74.953 210.188 74.9058 210.282 74.8519C210.673 74.6901 211.011 74.6766 211.011 74.6766L211.004 74.6699Z" fill="#C39368"/>
<path d="M188.597 76.982C189.028 77.8382 187.713 79.3751 185.65 80.4132C183.58 81.4514 181.557 81.5929 181.118 80.7436C180.687 79.8807 182.015 78.3437 184.072 77.3124C186.142 76.2742 188.165 76.1259 188.597 76.9888V76.982Z" fill="#F9CBC0"/>
<path d="M161.381 81.357C161.071 81.3233 160.774 81.3166 160.505 81.33C160.451 81.8963 160.424 82.4558 160.444 83.0153C160.673 83.076 160.916 83.1299 161.179 83.1569C162.373 83.2984 163.384 82.9951 163.438 82.503C163.499 82.0041 162.575 81.4918 161.381 81.357Z" fill="#F9CBC0"/>
<path d="M174.746 69.0343C177.457 69.1624 180.04 68.8119 182.743 69.3242C182.946 69.3646 183.526 69.1894 183.155 68.9534C181.941 68.1715 180.356 67.4165 178.907 67.2547C176.87 67.0255 174.355 67.949 172.568 66.7289C172.501 66.6817 172.4 66.6682 172.292 66.6817C172.224 66.6075 172.015 66.6413 172.008 66.7491C172.008 66.7626 172.008 66.7693 172.008 66.7828C171.894 66.8637 171.853 66.985 172.022 67.1064C172.029 67.1064 172.035 67.1131 172.049 67.1199C172.285 68.2726 173.694 68.9804 174.733 69.0343H174.746Z" fill="#59544F"/>
<path d="M160.943 72.3644C162.022 71.8521 163.222 71.7779 163.91 70.6252C164.342 69.9039 164.578 68.8591 164.234 68.0636C164.153 67.8816 163.755 67.7063 163.634 67.9288C163.35 68.4344 163.202 69.0276 162.973 69.5803C162.912 69.641 162.858 69.7084 162.791 69.7691C161.968 70.4702 161.24 71.2589 160.41 71.9599C160.161 72.1689 160.768 72.4453 160.95 72.3577L160.943 72.3644Z" fill="#59544F"/>
<path d="M165.029 85.1455C164.901 84.3433 165.576 83.777 166.182 83.44C167.888 82.503 169.015 80.6087 168.448 78.6673C168.428 78.5999 168.556 78.6269 168.569 78.6673C169.197 80.1166 168.866 81.2626 167.969 82.503C167.383 83.3119 166.243 83.6759 165.778 84.586C164.901 86.3184 167.632 87.2622 168.772 87.6464C169.095 87.7543 169.082 88.1183 168.704 88.0576C167.059 87.7812 165.313 86.9588 165.023 85.1455H165.029Z" fill="#C39368"/>
<g style="mix-blend-mode:multiply" opacity="0.6">
<path d="M173.451 85.5904C177.976 86.8105 182.406 89.1429 185.562 92.6416C185.677 92.7696 185.407 92.7831 185.333 92.709C181.982 89.3384 177.942 87.1341 173.445 85.6443C173.404 85.6308 173.404 85.5769 173.451 85.5904Z" fill="#E3BB94"/>
</g>
<g style="mix-blend-mode:multiply" opacity="0.6">
<path d="M169.068 91.7113C169.21 92.5 169.331 93.2887 169.473 94.0774C169.163 93.3022 168.934 92.473 168.772 91.6708C168.664 91.145 168.448 90.2822 168.408 89.5272C168.65 90.2485 168.934 90.9563 169.068 91.7113Z" fill="#E3BB94"/>
</g>
</g>
<path d="M10 20C10 14.4772 14.4772 10 20 10H110C115.523 10 120 14.4772 120 20V62H20C14.4771 62 10 57.5228 10 52V20Z" fill="#FFE897"/>
<path d="M25.525 24.484V24.601C25.525 27.812 24.277 30.425 20.65 32.245L21.261 33.077C25.395 30.997 26.565 27.877 26.565 24.484H25.525ZM21.287 24.484V25.355H26.175V24.484H21.287ZM25.46 27.396L20.689 27.708L20.871 28.644L25.46 28.215V27.396ZM29.23 23.262V35.014H30.309V23.262H29.23ZM26.539 27.968V28.865H29.75V27.968H26.539ZM32.609 32.609V33.506H43.256V32.609H32.609ZM33.532 24.432V25.316H42.255V24.432H33.532ZM33.558 29.398V30.282H42.242V29.398H33.558ZM35.365 25.251V29.489H36.444V25.251H35.365ZM39.369 25.251V29.489H40.435V25.251H39.369ZM45.998 26.785V27.669H53.98V26.785H45.998ZM44.555 29.242V30.126H55.215V29.242H44.555ZM45.998 23.691V27.227H47.064V23.691H45.998ZM45.92 33.844V34.728H54.045V33.844H45.92ZM45.92 31.296V34.078H46.986V31.296H45.92ZM67.9752 23.275V29.944H69.0672V23.275H67.9752ZM61.4752 30.62V34.858H69.0672V30.62H61.4752ZM68.0012 31.478V33.987H62.5282V31.478H68.0012ZM62.4892 23.717V24.861C62.4892 26.577 61.2802 28.163 59.5122 28.8L60.0452 29.658C62.0342 28.917 63.3862 27.045 63.3862 24.861V23.717H62.4892ZM62.6842 23.717V24.861C62.6842 26.993 64.0362 28.748 65.9992 29.424L66.5322 28.579C64.7902 27.994 63.5682 26.525 63.5682 24.861V23.717H62.6842ZM74.2792 24.523V25.472C74.2792 27.149 73.1092 28.67 71.3412 29.294L71.8872 30.152C73.8632 29.437 75.1632 27.63 75.1632 25.472V24.523H74.2792ZM74.4742 24.523V25.459C74.4742 27.461 75.7222 29.138 77.6852 29.788L78.2052 28.943C76.4762 28.371 75.3582 26.993 75.3582 25.459V24.523H74.4742ZM71.6662 24.133V25.017H77.9452V24.133H71.6662ZM79.4272 23.262V30.347H80.5062V23.262H79.4272ZM80.2072 26.239V27.149H82.2482V26.239H80.2072ZM76.7622 30.659C74.3702 30.659 72.9012 31.452 72.9012 32.817C72.9012 34.195 74.3702 34.988 76.7622 34.988C79.1542 34.988 80.6232 34.195 80.6232 32.817C80.6232 31.452 79.1542 30.659 76.7622 30.659ZM76.7622 31.53C78.5042 31.53 79.5702 31.998 79.5702 32.817C79.5702 33.649 78.5042 34.143 76.7622 34.143C75.0202 34.143 73.9542 33.649 73.9542 32.817C73.9542 31.998 75.0202 31.53 76.7622 31.53ZM83.8721 24.549V25.42H89.1891V24.549H83.8721ZM85.7051 27.903V31.881H86.7711V27.903H85.7051ZM88.7471 24.549V25.173C88.7471 26.122 88.7471 27.63 88.3961 29.749L89.4621 29.853C89.8001 27.669 89.8001 26.135 89.8001 25.173V24.549H88.7471ZM91.2821 23.262V35.014H92.3481V23.262H91.2821ZM92.0621 28.176V29.086H94.2331V28.176H92.0621ZM83.3521 32.453C85.4321 32.44 88.1881 32.388 90.6191 31.998L90.5671 31.205C88.1881 31.504 85.3541 31.543 83.2221 31.543L83.3521 32.453ZM28.684 39.262V45.541H29.763V39.262H28.684ZM29.464 41.979V42.876H31.505V41.979H29.464ZM25.434 40.081V40.666C25.434 42.629 23.783 44.202 20.689 44.891L21.118 45.762C24.563 44.969 26.63 43.045 26.63 40.081H25.434ZM21.17 40.081V40.965H26.058V40.081H21.17ZM22.366 46.074V50.455H23.432V46.893H29.828V46.074H22.366ZM22.366 50.039V50.858H30.088V50.039H22.366ZM23.068 48.037V48.83H29.685V48.037H23.068ZM32.596 45.437V46.321H43.217V45.437H32.596ZM33.974 49.87V50.754H42.047V49.87H33.974ZM33.974 47.348V50.143H35.053V47.348H33.974ZM37.913 39.652C35.391 39.652 33.779 40.536 33.779 42.005C33.779 43.461 35.391 44.345 37.913 44.345C40.422 44.345 42.047 43.461 42.047 42.005C42.047 40.536 40.422 39.652 37.913 39.652ZM37.913 40.536C39.759 40.536 40.942 41.082 40.942 42.005C40.942 42.928 39.759 43.474 37.913 43.474C36.067 43.474 34.884 42.928 34.884 42.005C34.884 41.082 36.067 40.536 37.913 40.536ZM48.9182 42.265V43.136H56.9002V42.265H48.9182ZM48.9182 39.522V42.824H49.9842V39.522H48.9182ZM47.4752 44.618V45.476H58.0962V44.618H47.4752ZM52.2462 42.837V45.203H53.3122V42.837H52.2462ZM48.6582 46.646V47.517H56.9262V46.646H48.6582ZM48.5412 49.987V50.858H57.0302V49.987H48.5412ZM50.4392 46.906V50.39H51.5052V46.906H50.4392ZM54.0662 46.906V50.39H55.1322V46.906H54.0662ZM67.9622 39.249V51.027H69.0412V39.249H67.9622ZM62.8402 40.159C61.1112 40.159 59.8632 41.758 59.8632 44.254C59.8632 46.763 61.1112 48.362 62.8402 48.362C64.5822 48.362 65.8302 46.763 65.8302 44.254C65.8302 41.758 64.5822 40.159 62.8402 40.159ZM62.8402 41.134C63.9972 41.134 64.7902 42.356 64.7902 44.254C64.7902 46.165 63.9972 47.413 62.8402 47.413C61.6962 47.413 60.8902 46.165 60.8902 44.254C60.8902 42.356 61.6962 41.134 62.8402 41.134ZM71.3932 48.674V49.571H82.0402V48.674H71.3932ZM76.1512 46.152V49.051H77.2302V46.152H76.1512ZM72.6802 40.133V41.004H79.6612V42.824H72.7192V46.048H73.7852V43.695H80.7272V40.133H72.6802ZM72.7192 45.593V46.477H81.0002V45.593H72.7192ZM89.1844 41.316V41.81C89.1844 43.396 88.0144 44.8 86.2724 45.346L86.7924 46.191C88.7554 45.528 90.0684 43.864 90.0684 41.81V41.316H89.1844ZM89.3794 41.316V41.81C89.3794 43.734 90.6534 45.346 92.6034 45.97L93.1234 45.125C91.4074 44.605 90.2634 43.266 90.2634 41.81V41.316H89.3794ZM86.5844 40.705V41.576H92.8504V40.705H86.5844ZM89.1844 39.21V41.134H90.2634V39.21H89.1844ZM94.2934 39.262V46.425H95.3724V39.262H94.2934ZM95.0734 42.395V43.292H97.1144V42.395H95.0734ZM87.7414 47.049V47.933H94.2934V51.027H95.3724V47.049H87.7414ZM100.831 43.24V45.463H101.897V43.24H100.831ZM105.147 43.24V45.463H106.213V43.24H105.147ZM98.2054 45.073V45.944H108.826V45.073H98.2054ZM103.509 46.828C100.987 46.828 99.4794 47.569 99.4794 48.908C99.4794 50.247 100.987 51.001 103.509 51.001C106.031 51.001 107.539 50.247 107.539 48.908C107.539 47.569 106.031 46.828 103.509 46.828ZM103.509 47.66C105.355 47.66 106.447 48.115 106.447 48.908C106.447 49.714 105.355 50.156 103.509 50.156C101.676 50.156 100.571 49.714 100.571 48.908C100.571 48.115 101.676 47.66 103.509 47.66ZM103.522 39.47C100.961 39.47 99.3884 40.289 99.3884 41.667C99.3884 43.032 100.961 43.838 103.522 43.838C106.07 43.838 107.656 43.032 107.656 41.667C107.656 40.289 106.07 39.47 103.522 39.47ZM103.522 40.315C105.394 40.315 106.551 40.809 106.551 41.667C106.551 42.512 105.394 43.006 103.522 43.006C101.65 43.006 100.493 42.512 100.493 41.667C100.493 40.809 101.65 40.315 103.522 40.315Z" fill="#8E4D00"/>
<path d="M116.222 58C120 54 120 50 120 50V62H108C108 62 112.444 62 116.222 58Z" fill="#CB5500"/>
<path d="M10 116C10 110.477 14.4772 106 20 106H120V148C120 153.523 115.523 158 110 158H20C14.4771 158 10 153.523 10 148V116Z" fill="#FFE897"/>
<path d="M20.65 124.852V125.749H31.271V124.852H20.65ZM21.989 122.863V123.734H30.036V122.863H21.989ZM21.989 119.73V123.279H23.055V120.614H29.945V119.73H21.989ZM25.941 126.763C23.432 126.763 21.911 127.53 21.911 128.882C21.911 130.234 23.432 130.988 25.941 130.988C28.45 130.988 29.971 130.234 29.971 128.882C29.971 127.53 28.45 126.763 25.941 126.763ZM25.941 127.595C27.787 127.595 28.879 128.063 28.879 128.882C28.879 129.688 27.787 130.143 25.941 130.143C24.108 130.143 23.003 129.688 23.003 128.882C23.003 128.063 24.108 127.595 25.941 127.595ZM37.913 119.457C35.313 119.457 33.779 120.185 33.779 121.498C33.779 122.811 35.313 123.539 37.913 123.539C40.5 123.539 42.047 122.811 42.047 121.498C42.047 120.185 40.5 119.457 37.913 119.457ZM37.913 120.276C39.824 120.276 40.929 120.718 40.929 121.498C40.929 122.278 39.824 122.72 37.913 122.72C35.989 122.72 34.884 122.278 34.884 121.498C34.884 120.718 35.989 120.276 37.913 120.276ZM32.596 124.319V125.19H43.217V124.319H32.596ZM33.883 126.191V127.023H40.799V128.063H33.909V130.273H34.975V128.843H41.865V126.191H33.883ZM33.909 130.039V130.884H42.216V130.039H33.909ZM56.0292 119.262V131.014H57.1082V119.262H56.0292ZM52.5842 120.523V120.705C52.5842 123.825 51.0112 126.321 47.6182 127.959L48.1902 128.83C52.1162 126.906 53.6502 123.929 53.6502 120.523H52.5842ZM48.1512 120.523V121.407H53.0522V120.523H48.1512ZM59.9542 124.93V125.827H60.6952C62.4372 125.827 63.6332 125.762 65.0632 125.476L64.9722 124.592C63.5682 124.878 62.3982 124.93 60.6952 124.93H59.9542ZM59.9542 120.393V125.203H61.0072V121.264H64.4002V120.393H59.9542ZM68.3002 119.262V127.998H69.3272V119.262H68.3002ZM66.4022 122.616V123.513H68.6252V122.616H66.4022ZM65.7132 119.483V127.634H66.7272V119.483H65.7132ZM61.6702 129.87V130.754H69.6912V129.87H61.6702ZM61.6702 126.958V130.312H62.7492V126.958H61.6702ZM82.8804 119.262V128.011H83.9594V119.262H82.8804ZM74.6384 120.211V121.095H80.8264V120.211H74.6384ZM74.4434 126.243C76.3544 126.243 78.9934 126.204 81.2554 125.84L81.1904 125.034C78.9934 125.294 76.2504 125.32 74.3264 125.32L74.4434 126.243ZM75.8084 120.965V125.476H76.8484V120.965H75.8084ZM78.6164 120.965V125.476H79.6564V120.965H78.6164ZM80.9304 121.485V122.369H83.4524V121.485H80.9304ZM80.9304 123.734V124.618H83.4524V123.734H80.9304ZM76.4454 129.87V130.754H84.2714V129.87H76.4454ZM76.4454 127.296V130.429H77.5244V127.296H76.4454ZM94.2934 119.249V127.907H95.3724V119.249H94.2934ZM95.0344 122.824V123.721H97.1144V122.824H95.0344ZM88.0534 129.87V130.754H95.9054V129.87H88.0534ZM88.0534 127.023V130.221H89.1324V127.023H88.0534ZM89.5354 120.081C87.7804 120.081 86.4674 121.29 86.4674 122.98C86.4674 124.683 87.7804 125.879 89.5354 125.879C91.2904 125.879 92.6034 124.683 92.6034 122.98C92.6034 121.29 91.2904 120.081 89.5354 120.081ZM89.5354 121.03C90.6794 121.03 91.5504 121.836 91.5504 122.98C91.5504 124.137 90.6794 124.93 89.5354 124.93C88.3914 124.93 87.5204 124.137 87.5204 122.98C87.5204 121.836 88.3914 121.03 89.5354 121.03ZM106.252 119.275V128.089H107.331V119.275H106.252ZM106.993 123.123V124.033H109.073V123.123H106.993ZM98.2444 120.692V121.563H105.186V120.692H98.2444ZM101.715 122.213C100.038 122.213 98.8944 123.084 98.8944 124.41C98.8944 125.723 100.038 126.594 101.715 126.594C103.379 126.594 104.523 125.723 104.523 124.41C104.523 123.084 103.379 122.213 101.715 122.213ZM101.715 123.058C102.768 123.058 103.496 123.591 103.496 124.41C103.496 125.216 102.768 125.749 101.715 125.749C100.649 125.749 99.9214 125.216 99.9214 124.41C99.9214 123.591 100.649 123.058 101.715 123.058ZM101.169 119.262V121.147H102.248V119.262H101.169ZM100.012 129.87V130.754H107.864V129.87H100.012ZM100.012 127.387V130.247H101.091V127.387H100.012ZM23.549 136.939V138.85C23.549 140.839 22.132 143.075 20.455 143.894L21.079 144.752C22.912 143.816 24.407 141.294 24.407 138.85V136.939H23.549ZM23.744 136.939V138.85C23.744 141.177 25.161 143.543 27.02 144.466L27.631 143.608C25.928 142.802 24.602 140.709 24.602 138.85V136.939H23.744ZM20.871 136.458V137.368H27.202V136.458H20.871ZM28.593 135.262V147.014H29.685V135.262H28.593ZM29.425 140.007V140.917H31.609V140.007H29.425ZM37.237 139.461V140.358H39.486V139.461H37.237ZM35.04 136.367V138.603C35.04 140.618 34.078 142.724 32.466 143.673L33.142 144.492C34.858 143.439 35.885 141.06 35.885 138.603V136.367H35.04ZM35.248 136.367V138.564C35.248 140.852 36.197 143.192 37.887 144.232L38.511 143.387C36.964 142.451 36.08 140.449 36.08 138.564V136.367H35.248ZM41.553 135.262V147.014H42.593V135.262H41.553ZM39.174 135.509V146.429H40.188V135.509H39.174ZM44.568 144.674V145.571H55.215V144.674H44.568ZM49.326 142.152V145.051H50.405V142.152H49.326ZM45.855 136.133V137.004H52.836V138.824H45.894V142.048H46.96V139.695H53.902V136.133H45.855ZM45.894 141.593V142.477H54.175V141.593H45.894ZM59.4212 141.203V142.074H70.0422V141.203H59.4212ZM60.6042 143.322V144.193H67.6502V147.014H68.7292V143.322H60.6042ZM64.2052 135.223V136.861H65.2712V135.223H64.2052ZM64.1532 137.004V137.199C64.1532 138.551 62.3332 139.5 60.0582 139.708L60.3962 140.54C62.9572 140.267 65.1022 139.123 65.1022 137.199V137.004H64.1532ZM64.3742 137.004V137.199C64.3742 139.123 66.5062 140.267 69.0802 140.54L69.4182 139.708C67.1432 139.5 65.3232 138.551 65.3232 137.199V137.004H64.3742ZM60.5132 136.432V137.303H68.9632V136.432H60.5132ZM77.6592 138.304V139.201H80.3112V138.304H77.6592ZM79.9732 135.262V142.269H81.0522V135.262H79.9732ZM77.1912 142.62C74.7602 142.62 73.2652 143.439 73.2652 144.817C73.2652 146.208 74.7602 147.001 77.1912 147.001C79.6092 147.001 81.1042 146.208 81.1042 144.817C81.1042 143.439 79.6092 142.62 77.1912 142.62ZM77.1912 143.465C78.9592 143.465 80.0382 143.959 80.0382 144.817C80.0382 145.662 78.9592 146.156 77.1912 146.156C75.4232 146.156 74.3442 145.662 74.3442 144.817C74.3442 143.959 75.4232 143.465 77.1912 143.465ZM74.3832 136.445V137.394C74.3832 139.084 73.1742 140.657 71.4322 141.294L71.9912 142.152C73.9412 141.424 75.2672 139.565 75.2672 137.394V136.445H74.3832ZM74.5912 136.445V137.394C74.5912 139.37 75.8522 141.138 77.7632 141.827L78.3092 140.969C76.6062 140.371 75.4622 138.915 75.4622 137.394V136.445H74.5912ZM71.7572 136.12V137.004H78.0362V136.12H71.7572Z" fill="#8E4D00"/>
<path d="M116 109.778C112 106 108 106 108 106H120V118C120 118 120 113.556 116 109.778Z" fill="#CB5500"/>
<path d="M237 20C237 14.4772 241.477 10 247 10H310C315.523 10 320 14.4772 320 20V52C320 57.5228 315.523 62 310 62H237V20Z" fill="#FFE897"/>
<path d="M247.637 29.203V30.074H258.258V29.203H247.637ZM248.82 31.322V32.193H255.866V35.014H256.945V31.322H248.82ZM252.421 23.223V24.861H253.487V23.223H252.421ZM252.369 25.004V25.199C252.369 26.551 250.549 27.5 248.274 27.708L248.612 28.54C251.173 28.267 253.318 27.123 253.318 25.199V25.004H252.369ZM252.59 25.004V25.199C252.59 27.123 254.722 28.267 257.296 28.54L257.634 27.708C255.359 27.5 253.539 26.551 253.539 25.199V25.004H252.59ZM248.729 24.432V25.303H257.179V24.432H248.729ZM265.875 26.304V27.201H268.527V26.304H265.875ZM268.189 23.262V30.269H269.268V23.262H268.189ZM265.407 30.62C262.976 30.62 261.481 31.439 261.481 32.817C261.481 34.208 262.976 35.001 265.407 35.001C267.825 35.001 269.32 34.208 269.32 32.817C269.32 31.439 267.825 30.62 265.407 30.62ZM265.407 31.465C267.175 31.465 268.254 31.959 268.254 32.817C268.254 33.662 267.175 34.156 265.407 34.156C263.639 34.156 262.56 33.662 262.56 32.817C262.56 31.959 263.639 31.465 265.407 31.465ZM262.599 24.445V25.394C262.599 27.084 261.39 28.657 259.648 29.294L260.207 30.152C262.157 29.424 263.483 27.565 263.483 25.394V24.445H262.599ZM262.807 24.445V25.394C262.807 27.37 264.068 29.138 265.979 29.827L266.525 28.969C264.822 28.371 263.678 26.915 263.678 25.394V24.445H262.807ZM259.973 24.12V25.004H266.252V24.12H259.973ZM279.233 29.138V31.192H280.312V29.138H279.233ZM274.462 28.761V29.632H285.083V28.761H274.462ZM279.766 30.867C277.244 30.867 275.736 31.608 275.736 32.934C275.736 34.247 277.244 34.988 279.766 34.988C282.288 34.988 283.796 34.247 283.796 32.934C283.796 31.608 282.288 30.867 279.766 30.867ZM279.766 31.699C281.612 31.699 282.704 32.141 282.704 32.934C282.704 33.714 281.612 34.156 279.766 34.156C277.933 34.156 276.828 33.714 276.828 32.934C276.828 32.141 277.933 31.699 279.766 31.699ZM279.077 24.224V24.575C279.077 25.914 277.166 26.967 275.06 27.188L275.45 28.046C277.881 27.747 280.039 26.473 280.039 24.575V24.224H279.077ZM279.532 24.224V24.575C279.532 26.473 281.677 27.747 284.108 28.046L284.498 27.188C282.392 26.967 280.481 25.914 280.481 24.575V24.224H279.532ZM275.437 23.795V24.666H284.134V23.795H275.437ZM297.375 23.262V29.242H298.454V23.262H297.375ZM297.986 25.784V26.681H300.183V25.784H297.986ZM289.822 23.925V28.631H295.217V23.925H289.822ZM294.164 24.783V27.773H290.875V24.783H294.164ZM290.992 29.801V30.659H297.401V31.868H291.018V34.442H292.084V32.687H298.454V29.801H290.992ZM291.018 33.987V34.858H298.883V33.987H291.018ZM301.612 36.47C302.795 35.989 303.51 35.014 303.51 33.753C303.51 32.895 303.133 32.362 302.509 32.362C302.028 32.362 301.625 32.674 301.625 33.194C301.625 33.727 302.028 34.026 302.483 34.026C302.717 34.026 302.925 33.961 303.081 33.766L302.509 32.908L302.639 33.974C302.639 34.767 302.145 35.417 301.339 35.781L301.612 36.47ZM252.421 45.255V47.296H253.487V45.255H252.421ZM252.954 39.483C250.406 39.483 248.82 40.302 248.82 41.693C248.82 43.084 250.406 43.89 252.954 43.89C255.489 43.89 257.088 43.084 257.088 41.693C257.088 40.302 255.489 39.483 252.954 39.483ZM252.954 40.328C254.813 40.328 255.983 40.835 255.983 41.693C255.983 42.551 254.813 43.045 252.954 43.045C251.082 43.045 249.925 42.551 249.925 41.693C249.925 40.835 251.082 40.328 252.954 40.328ZM248.937 46.984V50.858H256.958V46.984H248.937ZM255.905 47.855V49.987H250.003V47.855H255.905ZM247.637 44.787V45.671H258.258V44.787H247.637ZM262.729 40.471V41.407C262.729 43.071 261.533 44.605 259.765 45.229L260.324 46.074C262.3 45.372 263.626 43.565 263.626 41.407V40.471H262.729ZM262.937 40.471V41.407C262.937 43.461 264.289 45.19 266.239 45.853L266.798 45.008C265.056 44.423 263.834 42.993 263.834 41.407V40.471H262.937ZM268.15 39.262V46.373H269.242V39.262H268.15ZM261.39 46.997V47.881H268.15V51.014H269.242V46.997H261.39ZM260.051 40.081V40.952H266.486V40.081H260.051ZM280.109 39.275V45.983H281.201V39.275H280.109ZM273.609 46.62V50.858H281.201V46.62H273.609ZM280.135 47.478V49.987H274.662V47.478H280.135ZM274.896 39.886C273.115 39.886 271.828 41.004 271.828 42.629C271.828 44.254 273.115 45.372 274.896 45.372C276.677 45.372 277.951 44.254 277.951 42.629C277.951 41.004 276.677 39.886 274.896 39.886ZM274.896 40.783C276.066 40.783 276.911 41.537 276.911 42.629C276.911 43.721 276.066 44.462 274.896 44.462C273.726 44.462 272.881 43.721 272.881 42.629C272.881 41.537 273.726 40.783 274.896 40.783ZM289.333 40.939V42.85C289.333 44.839 287.916 47.075 286.239 47.894L286.863 48.752C288.696 47.816 290.191 45.294 290.191 42.85V40.939H289.333ZM289.528 40.939V42.85C289.528 45.177 290.945 47.543 292.804 48.466L293.415 47.608C291.712 46.802 290.386 44.709 290.386 42.85V40.939H289.528ZM286.655 40.458V41.368H292.986V40.458H286.655ZM294.377 39.262V51.014H295.469V39.262H294.377ZM295.209 44.007V44.917H297.393V44.007H295.209ZM307.324 39.262V51.014H308.364V39.262H307.324ZM303.047 43.474V44.371H305.296V43.474H303.047ZM304.971 39.535V50.416H305.985V39.535H304.971ZM300.785 41.082V42.577C300.785 44.735 299.875 46.88 298.237 47.868L298.9 48.674C300.629 47.582 301.617 45.151 301.617 42.577V41.082H300.785ZM301.006 41.082V42.577C301.006 45.034 301.955 47.348 303.671 48.388L304.334 47.595C302.722 46.659 301.838 44.618 301.838 42.577V41.082H301.006ZM298.562 40.627V41.524H303.931V40.627H298.562Z" fill="#8E4D00"/>
<path d="M241 58.2222C245 62 249 62 249 62H237V50C237 50 237 54.4444 241 58.2222Z" fill="#CB5500"/>
<path d="M218 106H310C315.523 106 320 110.477 320 116V148C320 153.523 315.523 158 310 158H228C222.477 158 218 153.523 218 148V106Z" fill="#FFE897"/>
<path d="M229.001 120.055V120.913H235.28V120.055H229.001ZM228.793 124.956C230.821 124.943 233.525 124.917 235.891 124.553L235.826 123.76C233.525 124.033 230.73 124.059 228.676 124.059L228.793 124.956ZM230.158 120.419V124.566H231.198V120.419H230.158ZM233.07 120.419V124.566H234.11V120.419H233.07ZM236.684 119.262V125.346H237.763V119.262H236.684ZM237.295 121.823V122.72H239.492V121.823H237.295ZM230.301 125.918V126.776H236.71V127.933H230.327V130.494H231.393V128.752H237.763V125.918H230.301ZM230.327 130.026V130.884H238.192V130.026H230.327ZM242.351 120.536V121.563C242.351 122.681 241.818 124.215 240.492 124.943L241.064 125.723C242.585 124.891 243.144 123.032 243.144 121.563V120.536H242.351ZM242.598 120.536V121.563C242.598 122.85 242.936 124.904 244.444 125.84L244.951 125.034C243.677 124.176 243.378 122.538 243.378 121.563V120.536H242.598ZM245.51 120.536V121.563C245.51 122.603 245.211 124.202 243.95 125.034L244.444 125.84C245.952 124.93 246.277 122.915 246.277 121.563V120.536H245.51ZM245.744 120.536V121.563C245.744 123.084 246.303 124.904 247.824 125.723L248.409 124.943C247.07 124.241 246.55 122.72 246.55 121.563V120.536H245.744ZM240.882 120.159V121.043H244.197V120.159H240.882ZM244.704 120.159V121.043H247.967V120.159H244.704ZM248.89 119.262V126.516H249.969V119.262H248.89ZM249.423 122.317V123.227H251.451V122.317H249.423ZM246.16 126.646C243.729 126.646 242.234 127.452 242.234 128.817C242.234 130.195 243.729 130.988 246.16 130.988C248.578 130.988 250.073 130.195 250.073 128.817C250.073 127.452 248.578 126.646 246.16 126.646ZM246.16 127.504C247.915 127.504 248.994 127.985 248.994 128.817C248.994 129.649 247.915 130.13 246.16 130.13C244.392 130.13 243.313 129.649 243.313 128.817C243.313 127.985 244.392 127.504 246.16 127.504ZM264.029 119.262V131.014H265.095V119.262H264.029ZM258.088 120.523V120.64C258.088 123.292 257.373 125.736 255.462 127.712L256.32 128.349C258.426 126.1 259.089 123.331 259.089 120.523H258.088ZM255.891 120.523V121.42H258.491V120.523H255.891ZM261.364 120.523V120.627C261.364 123.331 260.87 126.243 258.907 128.544L259.804 129.129C261.923 126.594 262.365 123.331 262.365 120.523H261.364ZM259.479 120.523V121.42H261.741V120.523H259.479ZM275.988 119.262V131.014H277.067V119.262H275.988ZM272.543 120.523V120.705C272.543 123.825 270.97 126.321 267.577 127.959L268.149 128.83C272.075 126.906 273.609 123.929 273.609 120.523H272.543ZM268.11 120.523V121.407H273.011V120.523H268.11ZM279.705 132.47C280.888 131.989 281.603 131.014 281.603 129.753C281.603 128.895 281.226 128.362 280.602 128.362C280.121 128.362 279.718 128.674 279.718 129.194C279.718 129.727 280.121 130.026 280.576 130.026C280.81 130.026 281.018 129.961 281.174 129.766L280.602 128.908L280.732 129.974C280.732 130.767 280.238 131.417 279.432 131.781L279.705 132.47ZM293.862 119.249V131.027H294.954V119.249H293.862ZM294.694 123.89V124.8H296.878V123.89H294.694ZM286.413 127.192V128.102H287.336C289.546 128.102 291.093 128.037 292.9 127.699L292.783 126.789C291.028 127.114 289.507 127.192 287.336 127.192H286.413ZM286.413 120.393V127.595H287.479V121.277H291.873V120.393H286.413ZM306.432 119.249V131.027H307.511V119.249H306.432ZM298.554 127.296V128.193H299.529C301.544 128.193 303.312 128.115 305.444 127.764L305.327 126.88C303.247 127.218 301.492 127.296 299.529 127.296H298.554ZM298.528 120.354V121.238H302.87V123.669H298.554V127.634H299.633V124.553H303.962V120.354H298.528ZM229.456 136.458V137.342H232.498V136.458H229.456ZM228.637 144.414V145.311H239.258V144.414H228.637ZM233.655 140.618V144.856H234.721V140.618H233.655ZM232.056 136.458V136.874C232.056 137.823 232.056 139.669 231.276 142.347L232.355 142.529C233.122 139.643 233.122 137.797 233.122 136.874V136.458H232.056ZM234.071 136.458V137.342H237.373V136.458H234.071ZM236.996 136.458V137.264C236.996 138.408 236.996 140.046 236.515 142.36L237.594 142.49C238.062 140.059 238.062 138.434 238.062 137.264V136.458H236.996ZM249.163 135.262V147.014H250.242V135.262H249.163ZM245.718 136.523V136.705C245.718 139.825 244.145 142.321 240.752 143.959L241.324 144.83C245.25 142.906 246.784 139.929 246.784 136.523H245.718ZM241.285 136.523V137.407H246.186V136.523H241.285ZM264.341 135.262V142.698H265.368V135.262H264.341ZM262.43 138.447V139.344H264.653V138.447H262.43ZM261.832 135.496V142.282H262.846V135.496H261.832ZM255.41 136.666V137.524H261.364V136.666H255.41ZM258.4 138.122C256.918 138.122 255.891 138.928 255.891 140.137C255.891 141.359 256.918 142.152 258.4 142.152C259.869 142.152 260.896 141.359 260.896 140.137C260.896 138.928 259.869 138.122 258.4 138.122ZM258.4 138.928C259.31 138.928 259.934 139.409 259.934 140.137C259.934 140.878 259.31 141.346 258.4 141.346C257.477 141.346 256.853 140.878 256.853 140.137C256.853 139.409 257.477 138.928 258.4 138.928ZM257.867 135.353V137.147H258.92V135.353H257.867ZM261.52 142.906C259.05 142.906 257.594 143.634 257.594 144.947C257.594 146.247 259.05 146.988 261.52 146.988C263.964 146.988 265.433 146.247 265.433 144.947C265.433 143.634 263.964 142.906 261.52 142.906ZM261.52 143.738C263.301 143.738 264.367 144.167 264.367 144.947C264.367 145.727 263.301 146.169 261.52 146.169C259.713 146.169 258.66 145.727 258.66 144.947C258.66 144.167 259.713 143.738 261.52 143.738ZM267.434 141.047V141.931H278.055V141.047H267.434ZM272.205 139.162V141.411H273.271V139.162H272.205ZM268.773 138.824V139.708H276.82V138.824H268.773ZM268.773 135.795V139.344H269.839V136.666H276.729V135.795H268.773ZM272.725 142.776C270.216 142.776 268.695 143.543 268.695 144.882C268.695 146.247 270.216 147.001 272.725 147.001C275.234 147.001 276.755 146.247 276.755 144.882C276.755 143.543 275.234 142.776 272.725 142.776ZM272.725 143.608C274.571 143.608 275.663 144.076 275.663 144.882C275.663 145.701 274.571 146.156 272.725 146.156C270.892 146.156 269.787 145.701 269.787 144.882C269.787 144.076 270.892 143.608 272.725 143.608ZM285.199 136.939V138.85C285.199 140.839 283.782 143.075 282.105 143.894L282.729 144.752C284.562 143.816 286.057 141.294 286.057 138.85V136.939H285.199ZM285.394 136.939V138.85C285.394 141.177 286.811 143.543 288.67 144.466L289.281 143.608C287.578 142.802 286.252 140.709 286.252 138.85V136.939H285.394ZM282.521 136.458V137.368H288.852V136.458H282.521ZM290.243 135.262V147.014H291.335V135.262H290.243ZM291.075 140.007V140.917H293.259V140.007H291.075ZM303.19 135.262V147.014H304.23V135.262H303.19ZM298.913 139.474V140.371H301.162V139.474H298.913ZM300.837 135.535V146.416H301.851V135.535H300.837ZM296.651 137.082V138.577C296.651 140.735 295.741 142.88 294.103 143.868L294.766 144.674C296.495 143.582 297.483 141.151 297.483 138.577V137.082H296.651ZM296.872 137.082V138.577C296.872 141.034 297.821 143.348 299.537 144.388L300.2 143.595C298.588 142.659 297.704 140.618 297.704 138.577V137.082H296.872ZM294.428 136.627V137.524H299.797V136.627H294.428Z" fill="#8E4D00"/>
<path d="M222 109.778C226 106 230 106 230 106H218V118C218 118 218 113.556 222 109.778Z" fill="#CB5500"/>
<defs>
<clipPath id="clip0_13_253">
<rect width="147" height="151" fill="white" transform="translate(91 17)"/>
</clipPath>
</defs>
</svg>
