<svg width="18" height="14" viewBox="0 0 18 14" fill="none" xmlns="http://www.w3.org/2000/svg">
<path id="cloud_upload" d="M4.5 13.5455C3.25909 13.5455 2.19886 13.1159 1.31932 12.2568C0.439773 11.3977 0 10.3477 0 9.10682C0 8.04318 0.320455 7.09545 0.961364 6.26363C1.60227 5.43182 2.44091 4.9 3.47727 4.66818C3.81818 3.41364 4.5 2.39773 5.52273 1.62045C6.54545 0.843181 7.70455 0.454544 9 0.454544C10.5955 0.454544 11.9489 1.01023 13.0602 2.12159C14.1716 3.23295 14.7273 4.58636 14.7273 6.18182C15.6682 6.29091 16.4489 6.69659 17.0693 7.39886C17.6898 8.10114 18 8.92273 18 9.86364C18 10.8864 17.642 11.7557 16.9261 12.4716C16.2102 13.1875 15.3409 13.5455 14.3182 13.5455H9.81818C9.36818 13.5455 8.98295 13.3852 8.6625 13.0648C8.34205 12.7443 8.18182 12.3591 8.18182 11.9091V7.69545L6.87273 8.96364L5.72727 7.81818L9 4.54545L12.2727 7.81818L11.1273 8.96364L9.81818 7.69545V11.9091H14.3182C14.8909 11.9091 15.375 11.7114 15.7705 11.3159C16.1659 10.9205 16.3636 10.4364 16.3636 9.86364C16.3636 9.29091 16.1659 8.80682 15.7705 8.41136C15.375 8.01591 14.8909 7.81818 14.3182 7.81818H13.0909V6.18182C13.0909 5.05 12.692 4.08523 11.8943 3.2875C11.0966 2.48977 10.1318 2.09091 9 2.09091C7.86818 2.09091 6.90341 2.48977 6.10568 3.2875C5.30795 4.08523 4.90909 5.05 4.90909 6.18182H4.5C3.70909 6.18182 3.03409 6.46136 2.475 7.02045C1.91591 7.57954 1.63636 8.25454 1.63636 9.04545C1.63636 9.83636 1.91591 10.5114 2.475 11.0705C3.03409 11.6295 3.70909 11.9091 4.5 11.9091H6.54545V13.5455H4.5Z" fill="white"/>
</svg>
