<svg width="40" height="41" viewBox="0 0 40 41" fill="none" xmlns="http://www.w3.org/2000/svg">
<rect width="40" height="41" fill="#1E1E1E"/>
<g id="&#237;&#152;&#136;&#235;&#139;&#185;&#236;&#184;&#161;&#236;&#160;&#149;&#234;&#184;&#176;&#235;&#161;&#157;  FAHR_00.html">
<rect width="487" height="1140" transform="translate(-200 -165)" fill="white"/>
<g id="&#237;&#131;&#128;&#236;&#157;&#180;&#237;&#139;&#128; &#236;&#152;&#129;&#236;&#151;&#173; - &#235;&#146;&#164;&#235;&#161;&#156;&#234;&#176;&#128;&#234;&#184;&#176;" filter="url(#filter0_d_1747_1432)">
<g id="Screen">
<g clip-path="url(#clip0_1747_1432)">
<rect id="Rectangle 12" x="-144" y="-113" width="375" height="812" fill="white"/>
</g>
<rect x="-145.5" y="-114.5" width="378" height="815" rx="41.5" stroke="black" stroke-width="3"/>
</g>
<g id="&#235;&#130;&#180;&#236;&#154;&#169;" clip-path="url(#clip1_1747_1432)">
<g id="container">
<rect x="-144.5" y="-76.5" width="376" height="979.258" stroke="#DEE2E6"/>
<g id="contents_box">
<rect width="375" height="878.258" transform="translate(-144 -26)" fill="white"/>
<g id="top_board_wrap">
<rect x="-144" y="-26" width="375" height="108" rx="4" fill="#E9F2FF"/>
<g id="Frame 61">
<g id="Frame 60">
<g id="call_made">
<mask id="mask0_1747_1432" style="mask-type:alpha" maskUnits="userSpaceOnUse" x="0" y="0" width="40" height="41">
<rect id="Bounding box" x="40" y="0.5" width="40" height="40" transform="rotate(90 40 0.5)" fill="#D9D9D9"/>
</mask>
<g mask="url(#mask0_1747_1432)">
<path id="call_made_2" d="M4.15013 23.4197L4.15013 18.3499L28.592 18.3499L22.5616 12.3194L26.1905 8.69052L38.3848 20.8848L26.1905 33.079L22.5616 29.4501L28.592 23.4197L4.15013 23.4197Z" fill="#DC3545"/>
</g>
</g>
</g>
<path id="mg/dL/min" d="M4.8426 44.654V45.788C5.07594 45.4147 5.38393 45.102 5.7666 44.85C6.1586 44.5887 6.65794 44.458 7.2646 44.458C7.8526 44.458 8.36594 44.6073 8.8046 44.906C9.24327 45.2047 9.5606 45.6153 9.7566 46.138C9.99927 45.6247 10.3679 45.2187 10.8626 44.92C11.3573 44.612 11.9359 44.458 12.5986 44.458C13.1679 44.458 13.6719 44.598 14.1106 44.878C14.5586 45.1487 14.9086 45.536 15.1606 46.04C15.4126 46.544 15.5386 47.1273 15.5386 47.79V52.662H14.0966V48.028C14.0966 47.3093 13.9333 46.7447 13.6066 46.334C13.2799 45.9233 12.8319 45.718 12.2626 45.718C11.8706 45.718 11.5159 45.8347 11.1986 46.068C10.8813 46.3013 10.6339 46.6187 10.4566 47.02C10.2793 47.4213 10.1906 47.8647 10.1906 48.35V52.662H8.7486V48.084C8.7486 47.3373 8.58527 46.7587 8.2586 46.348C7.93194 45.928 7.48394 45.718 6.9146 45.718C6.5226 45.718 6.16794 45.8347 5.8506 46.068C5.5426 46.3013 5.29527 46.6187 5.1086 47.02C4.93127 47.4213 4.8426 47.86 4.8426 48.336V52.662H3.4006V44.654H4.8426ZM21.512 56.26C20.4293 56.26 19.5613 55.9893 18.908 55.448C18.264 54.916 17.8673 54.2393 17.718 53.418H19.188C19.2813 53.8847 19.5193 54.2673 19.902 54.566C20.294 54.8647 20.8307 55.014 21.512 55.014C22.2493 55.014 22.842 54.7807 23.29 54.314C23.7473 53.8567 23.976 53.2407 23.976 52.466V51.36C23.752 51.7427 23.3927 52.0693 22.898 52.34C22.4033 52.6107 21.8153 52.746 21.134 52.746C20.3873 52.746 19.7107 52.564 19.104 52.2C18.5067 51.8453 18.0353 51.3553 17.69 50.73C17.3447 50.0953 17.172 49.3907 17.172 48.616C17.172 47.8413 17.3447 47.1367 17.69 46.502C18.0353 45.8673 18.5067 45.368 19.104 45.004C19.7107 44.64 20.3873 44.458 21.134 44.458C21.8153 44.458 22.4033 44.5933 22.898 44.864C23.3927 45.1347 23.752 45.4613 23.976 45.844V44.654H25.418V52.48C25.418 53.208 25.25 53.8567 24.914 54.426C24.5873 55.0047 24.1253 55.4527 23.528 55.77C22.94 56.0967 22.268 56.26 21.512 56.26ZM21.26 51.5C21.792 51.5 22.2633 51.374 22.674 51.122C23.094 50.87 23.4207 50.5247 23.654 50.086C23.8873 49.6473 24.004 49.1573 24.004 48.616C24.004 48.0747 23.8873 47.5847 23.654 47.146C23.4207 46.7073 23.094 46.362 22.674 46.11C22.2633 45.858 21.792 45.732 21.26 45.732C20.7373 45.732 20.2707 45.858 19.86 46.11C19.4587 46.362 19.146 46.7073 18.922 47.146C18.698 47.5847 18.586 48.0747 18.586 48.616C18.586 49.1573 18.698 49.6473 18.922 50.086C19.146 50.5247 19.4587 50.87 19.86 51.122C20.2707 51.374 20.7373 51.5 21.26 51.5ZM26.9819 53.6L32.1059 40.51H33.5619L28.4379 53.6H26.9819ZM37.2531 52.858C36.5065 52.858 35.8298 52.676 35.2231 52.312C34.6258 51.948 34.1545 51.444 33.8091 50.8C33.4638 50.156 33.2911 49.442 33.2911 48.658C33.2911 47.874 33.4638 47.16 33.8091 46.516C34.1545 45.872 34.6258 45.368 35.2231 45.004C35.8298 44.64 36.5065 44.458 37.2531 44.458C37.9345 44.458 38.5225 44.5933 39.0171 44.864C39.5118 45.1347 39.8711 45.4613 40.0951 45.844V41.098H41.5371V52.662H40.0951V51.472C39.8711 51.8547 39.5118 52.1813 39.0171 52.452C38.5225 52.7227 37.9345 52.858 37.2531 52.858ZM37.3791 51.584C37.9111 51.584 38.3825 51.458 38.7931 51.206C39.2131 50.9447 39.5398 50.5947 39.7731 50.156C40.0065 49.708 40.1231 49.2087 40.1231 48.658C40.1231 48.1073 40.0065 47.6127 39.7731 47.174C39.5398 46.726 39.2131 46.376 38.7931 46.124C38.3825 45.8627 37.9111 45.732 37.3791 45.732C36.8565 45.732 36.3898 45.858 35.9791 46.11C35.5778 46.362 35.2651 46.712 35.0411 47.16C34.8171 47.608 34.7051 48.1073 34.7051 48.658C34.7051 49.2087 34.8171 49.708 35.0411 50.156C35.2651 50.604 35.5778 50.954 35.9791 51.206C36.3898 51.458 36.8565 51.584 37.3791 51.584ZM45.341 51.332H51.501V52.662H43.871V41.448H45.341V51.332ZM52.3842 53.6L57.5082 40.51H58.9642L53.8402 53.6H52.3842ZM60.993 44.654V45.788C61.2263 45.4147 61.5343 45.102 61.917 44.85C62.309 44.5887 62.8083 44.458 63.415 44.458C64.003 44.458 64.5163 44.6073 64.955 44.906C65.3937 45.2047 65.711 45.6153 65.907 46.138C66.1497 45.6247 66.5183 45.2187 67.013 44.92C67.5077 44.612 68.0863 44.458 68.749 44.458C69.3183 44.458 69.8223 44.598 70.261 44.878C70.709 45.1487 71.059 45.536 71.311 46.04C71.563 46.544 71.689 47.1273 71.689 47.79V52.662H70.247V48.028C70.247 47.3093 70.0837 46.7447 69.757 46.334C69.4303 45.9233 68.9823 45.718 68.413 45.718C68.021 45.718 67.6663 45.8347 67.349 46.068C67.0317 46.3013 66.7843 46.6187 66.607 47.02C66.4297 47.4213 66.341 47.8647 66.341 48.35V52.662H64.899V48.084C64.899 47.3373 64.7357 46.7587 64.409 46.348C64.0823 45.928 63.6343 45.718 63.065 45.718C62.673 45.718 62.3183 45.8347 62.001 46.068C61.693 46.3013 61.4457 46.6187 61.259 47.02C61.0817 47.4213 60.993 47.86 60.993 48.336V52.662H59.551V44.654H60.993ZM74.4564 40.958C74.7364 40.958 74.9651 41.0513 75.1424 41.238C75.3291 41.4153 75.4224 41.6393 75.4224 41.91C75.4224 42.1807 75.3291 42.4093 75.1424 42.596C74.9651 42.7733 74.7364 42.862 74.4564 42.862C74.1857 42.862 73.9571 42.7733 73.7704 42.596C73.5931 42.4093 73.5044 42.1807 73.5044 41.91C73.5044 41.6393 73.5931 41.4153 73.7704 41.238C73.9571 41.0513 74.1857 40.958 74.4564 40.958ZM73.7424 52.676V44.654H75.1844V52.676H73.7424ZM78.8895 44.654V45.872C79.0948 45.508 79.4308 45.1813 79.8975 44.892C80.3735 44.6027 80.9428 44.458 81.6055 44.458C82.2308 44.458 82.7861 44.6027 83.2715 44.892C83.7661 45.1813 84.1488 45.592 84.4195 46.124C84.6901 46.6467 84.8255 47.2627 84.8255 47.972V52.662H83.3835V48.224C83.3835 47.4213 83.1968 46.8053 82.8235 46.376C82.4595 45.9373 81.9508 45.718 81.2975 45.718C80.8401 45.718 80.4295 45.8487 80.0655 46.11C79.7015 46.362 79.4121 46.7027 79.1975 47.132C78.9921 47.5613 78.8895 48.0233 78.8895 48.518V52.662H77.4475V44.654H78.8895Z" fill="black"/>
</g>
</g>
</g>
</g>
</g>
</g>
</g>
<defs>
<filter id="filter0_d_1747_1432" x="-163" y="-120" width="413" height="850" filterUnits="userSpaceOnUse" color-interpolation-filters="sRGB">
<feFlood flood-opacity="0" result="BackgroundImageFix"/>
<feColorMatrix in="SourceAlpha" type="matrix" values="0 0 0 0 0 0 0 0 0 0 0 0 0 0 0 0 0 0 127 0" result="hardAlpha"/>
<feOffset dy="12"/>
<feGaussianBlur stdDeviation="8"/>
<feColorMatrix type="matrix" values="0 0 0 0 0 0 0 0 0 0 0 0 0 0 0 0 0 0 0.04 0"/>
<feBlend mode="normal" in2="BackgroundImageFix" result="effect1_dropShadow_1747_1432"/>
<feBlend mode="normal" in="SourceGraphic" in2="effect1_dropShadow_1747_1432" result="shape"/>
</filter>
<clipPath id="clip0_1747_1432">
<rect x="-144" y="-113" width="375" height="812" rx="40" fill="white"/>
</clipPath>
<clipPath id="clip1_1747_1432">
<rect width="375" height="730" fill="white" transform="translate(-144 -76)"/>
</clipPath>
</defs>
</svg>
